G04 #@! TF.GenerationSoftware,KiCad,Pcbnew,(5.1.12)-1*
G04 #@! TF.CreationDate,2021-12-30T17:29:10+01:00*
G04 #@! TF.ProjectId,GameGirl,47616d65-4769-4726-9c2e-6b696361645f,rev?*
G04 #@! TF.SameCoordinates,Original*
G04 #@! TF.FileFunction,Soldermask,Top*
G04 #@! TF.FilePolarity,Negative*
%FSLAX46Y46*%
G04 Gerber Fmt 4.6, Leading zero omitted, Abs format (unit mm)*
G04 Created by KiCad (PCBNEW (5.1.12)-1) date 2021-12-30 17:29:10*
%MOMM*%
%LPD*%
G01*
G04 APERTURE LIST*
%ADD10C,1.000000*%
%ADD11C,2.200000*%
%ADD12R,1.000000X1.800000*%
%ADD13R,2.100000X1.800000*%
%ADD14R,1.060000X0.650000*%
%ADD15R,0.900000X0.800000*%
%ADD16R,1.000000X1.100000*%
%ADD17R,0.550000X0.550000*%
%ADD18R,1.000000X0.750000*%
%ADD19R,1.800000X4.000000*%
%ADD20O,1.350000X1.350000*%
%ADD21R,1.350000X1.350000*%
%ADD22R,1.300000X0.300000*%
%ADD23R,2.200000X1.800000*%
%ADD24R,1.150000X0.300000*%
%ADD25C,0.650000*%
%ADD26O,1.600000X1.000000*%
%ADD27O,2.100000X1.000000*%
%ADD28R,1.000000X1.000000*%
G04 APERTURE END LIST*
D10*
X85250000Y-50050000D03*
D11*
X33000000Y-33000000D03*
X33000000Y-127000000D03*
X122000000Y-127000000D03*
X121870000Y-32870000D03*
D12*
X46700000Y-77400000D03*
X44200000Y-77400000D03*
D13*
X49300000Y-79300000D03*
X52200000Y-79300000D03*
X52200000Y-81600000D03*
X49300000Y-81600000D03*
D14*
X59450000Y-89000000D03*
X59450000Y-87100000D03*
X61650000Y-87100000D03*
X61650000Y-88050000D03*
X61650000Y-89000000D03*
X101400000Y-84600000D03*
X101400000Y-82700000D03*
X103600000Y-82700000D03*
X103600000Y-83650000D03*
X103600000Y-84600000D03*
D15*
X100550000Y-99550000D03*
X102550000Y-98600000D03*
X102550000Y-100500000D03*
G36*
G01*
X44705000Y-73290000D02*
X43305000Y-73290000D01*
G75*
G02*
X43230000Y-73215000I0J75000D01*
G01*
X43230000Y-73065000D01*
G75*
G02*
X43305000Y-72990000I75000J0D01*
G01*
X44705000Y-72990000D01*
G75*
G02*
X44780000Y-73065000I0J-75000D01*
G01*
X44780000Y-73215000D01*
G75*
G02*
X44705000Y-73290000I-75000J0D01*
G01*
G37*
G36*
G01*
X44705000Y-72790000D02*
X43305000Y-72790000D01*
G75*
G02*
X43230000Y-72715000I0J75000D01*
G01*
X43230000Y-72565000D01*
G75*
G02*
X43305000Y-72490000I75000J0D01*
G01*
X44705000Y-72490000D01*
G75*
G02*
X44780000Y-72565000I0J-75000D01*
G01*
X44780000Y-72715000D01*
G75*
G02*
X44705000Y-72790000I-75000J0D01*
G01*
G37*
G36*
G01*
X44705000Y-72290000D02*
X43305000Y-72290000D01*
G75*
G02*
X43230000Y-72215000I0J75000D01*
G01*
X43230000Y-72065000D01*
G75*
G02*
X43305000Y-71990000I75000J0D01*
G01*
X44705000Y-71990000D01*
G75*
G02*
X44780000Y-72065000I0J-75000D01*
G01*
X44780000Y-72215000D01*
G75*
G02*
X44705000Y-72290000I-75000J0D01*
G01*
G37*
G36*
G01*
X44705000Y-71790000D02*
X43305000Y-71790000D01*
G75*
G02*
X43230000Y-71715000I0J75000D01*
G01*
X43230000Y-71565000D01*
G75*
G02*
X43305000Y-71490000I75000J0D01*
G01*
X44705000Y-71490000D01*
G75*
G02*
X44780000Y-71565000I0J-75000D01*
G01*
X44780000Y-71715000D01*
G75*
G02*
X44705000Y-71790000I-75000J0D01*
G01*
G37*
G36*
G01*
X44705000Y-71290000D02*
X43305000Y-71290000D01*
G75*
G02*
X43230000Y-71215000I0J75000D01*
G01*
X43230000Y-71065000D01*
G75*
G02*
X43305000Y-70990000I75000J0D01*
G01*
X44705000Y-70990000D01*
G75*
G02*
X44780000Y-71065000I0J-75000D01*
G01*
X44780000Y-71215000D01*
G75*
G02*
X44705000Y-71290000I-75000J0D01*
G01*
G37*
G36*
G01*
X44705000Y-70790000D02*
X43305000Y-70790000D01*
G75*
G02*
X43230000Y-70715000I0J75000D01*
G01*
X43230000Y-70565000D01*
G75*
G02*
X43305000Y-70490000I75000J0D01*
G01*
X44705000Y-70490000D01*
G75*
G02*
X44780000Y-70565000I0J-75000D01*
G01*
X44780000Y-70715000D01*
G75*
G02*
X44705000Y-70790000I-75000J0D01*
G01*
G37*
G36*
G01*
X44705000Y-70290000D02*
X43305000Y-70290000D01*
G75*
G02*
X43230000Y-70215000I0J75000D01*
G01*
X43230000Y-70065000D01*
G75*
G02*
X43305000Y-69990000I75000J0D01*
G01*
X44705000Y-69990000D01*
G75*
G02*
X44780000Y-70065000I0J-75000D01*
G01*
X44780000Y-70215000D01*
G75*
G02*
X44705000Y-70290000I-75000J0D01*
G01*
G37*
G36*
G01*
X44705000Y-69790000D02*
X43305000Y-69790000D01*
G75*
G02*
X43230000Y-69715000I0J75000D01*
G01*
X43230000Y-69565000D01*
G75*
G02*
X43305000Y-69490000I75000J0D01*
G01*
X44705000Y-69490000D01*
G75*
G02*
X44780000Y-69565000I0J-75000D01*
G01*
X44780000Y-69715000D01*
G75*
G02*
X44705000Y-69790000I-75000J0D01*
G01*
G37*
G36*
G01*
X44705000Y-69290000D02*
X43305000Y-69290000D01*
G75*
G02*
X43230000Y-69215000I0J75000D01*
G01*
X43230000Y-69065000D01*
G75*
G02*
X43305000Y-68990000I75000J0D01*
G01*
X44705000Y-68990000D01*
G75*
G02*
X44780000Y-69065000I0J-75000D01*
G01*
X44780000Y-69215000D01*
G75*
G02*
X44705000Y-69290000I-75000J0D01*
G01*
G37*
G36*
G01*
X44705000Y-68790000D02*
X43305000Y-68790000D01*
G75*
G02*
X43230000Y-68715000I0J75000D01*
G01*
X43230000Y-68565000D01*
G75*
G02*
X43305000Y-68490000I75000J0D01*
G01*
X44705000Y-68490000D01*
G75*
G02*
X44780000Y-68565000I0J-75000D01*
G01*
X44780000Y-68715000D01*
G75*
G02*
X44705000Y-68790000I-75000J0D01*
G01*
G37*
G36*
G01*
X44705000Y-68290000D02*
X43305000Y-68290000D01*
G75*
G02*
X43230000Y-68215000I0J75000D01*
G01*
X43230000Y-68065000D01*
G75*
G02*
X43305000Y-67990000I75000J0D01*
G01*
X44705000Y-67990000D01*
G75*
G02*
X44780000Y-68065000I0J-75000D01*
G01*
X44780000Y-68215000D01*
G75*
G02*
X44705000Y-68290000I-75000J0D01*
G01*
G37*
G36*
G01*
X44705000Y-67790000D02*
X43305000Y-67790000D01*
G75*
G02*
X43230000Y-67715000I0J75000D01*
G01*
X43230000Y-67565000D01*
G75*
G02*
X43305000Y-67490000I75000J0D01*
G01*
X44705000Y-67490000D01*
G75*
G02*
X44780000Y-67565000I0J-75000D01*
G01*
X44780000Y-67715000D01*
G75*
G02*
X44705000Y-67790000I-75000J0D01*
G01*
G37*
G36*
G01*
X44705000Y-67290000D02*
X43305000Y-67290000D01*
G75*
G02*
X43230000Y-67215000I0J75000D01*
G01*
X43230000Y-67065000D01*
G75*
G02*
X43305000Y-66990000I75000J0D01*
G01*
X44705000Y-66990000D01*
G75*
G02*
X44780000Y-67065000I0J-75000D01*
G01*
X44780000Y-67215000D01*
G75*
G02*
X44705000Y-67290000I-75000J0D01*
G01*
G37*
G36*
G01*
X44705000Y-66790000D02*
X43305000Y-66790000D01*
G75*
G02*
X43230000Y-66715000I0J75000D01*
G01*
X43230000Y-66565000D01*
G75*
G02*
X43305000Y-66490000I75000J0D01*
G01*
X44705000Y-66490000D01*
G75*
G02*
X44780000Y-66565000I0J-75000D01*
G01*
X44780000Y-66715000D01*
G75*
G02*
X44705000Y-66790000I-75000J0D01*
G01*
G37*
G36*
G01*
X44705000Y-66290000D02*
X43305000Y-66290000D01*
G75*
G02*
X43230000Y-66215000I0J75000D01*
G01*
X43230000Y-66065000D01*
G75*
G02*
X43305000Y-65990000I75000J0D01*
G01*
X44705000Y-65990000D01*
G75*
G02*
X44780000Y-66065000I0J-75000D01*
G01*
X44780000Y-66215000D01*
G75*
G02*
X44705000Y-66290000I-75000J0D01*
G01*
G37*
G36*
G01*
X44705000Y-65790000D02*
X43305000Y-65790000D01*
G75*
G02*
X43230000Y-65715000I0J75000D01*
G01*
X43230000Y-65565000D01*
G75*
G02*
X43305000Y-65490000I75000J0D01*
G01*
X44705000Y-65490000D01*
G75*
G02*
X44780000Y-65565000I0J-75000D01*
G01*
X44780000Y-65715000D01*
G75*
G02*
X44705000Y-65790000I-75000J0D01*
G01*
G37*
G36*
G01*
X46005000Y-64490000D02*
X45855000Y-64490000D01*
G75*
G02*
X45780000Y-64415000I0J75000D01*
G01*
X45780000Y-63015000D01*
G75*
G02*
X45855000Y-62940000I75000J0D01*
G01*
X46005000Y-62940000D01*
G75*
G02*
X46080000Y-63015000I0J-75000D01*
G01*
X46080000Y-64415000D01*
G75*
G02*
X46005000Y-64490000I-75000J0D01*
G01*
G37*
G36*
G01*
X46505000Y-64490000D02*
X46355000Y-64490000D01*
G75*
G02*
X46280000Y-64415000I0J75000D01*
G01*
X46280000Y-63015000D01*
G75*
G02*
X46355000Y-62940000I75000J0D01*
G01*
X46505000Y-62940000D01*
G75*
G02*
X46580000Y-63015000I0J-75000D01*
G01*
X46580000Y-64415000D01*
G75*
G02*
X46505000Y-64490000I-75000J0D01*
G01*
G37*
G36*
G01*
X47005000Y-64490000D02*
X46855000Y-64490000D01*
G75*
G02*
X46780000Y-64415000I0J75000D01*
G01*
X46780000Y-63015000D01*
G75*
G02*
X46855000Y-62940000I75000J0D01*
G01*
X47005000Y-62940000D01*
G75*
G02*
X47080000Y-63015000I0J-75000D01*
G01*
X47080000Y-64415000D01*
G75*
G02*
X47005000Y-64490000I-75000J0D01*
G01*
G37*
G36*
G01*
X47505000Y-64490000D02*
X47355000Y-64490000D01*
G75*
G02*
X47280000Y-64415000I0J75000D01*
G01*
X47280000Y-63015000D01*
G75*
G02*
X47355000Y-62940000I75000J0D01*
G01*
X47505000Y-62940000D01*
G75*
G02*
X47580000Y-63015000I0J-75000D01*
G01*
X47580000Y-64415000D01*
G75*
G02*
X47505000Y-64490000I-75000J0D01*
G01*
G37*
G36*
G01*
X48005000Y-64490000D02*
X47855000Y-64490000D01*
G75*
G02*
X47780000Y-64415000I0J75000D01*
G01*
X47780000Y-63015000D01*
G75*
G02*
X47855000Y-62940000I75000J0D01*
G01*
X48005000Y-62940000D01*
G75*
G02*
X48080000Y-63015000I0J-75000D01*
G01*
X48080000Y-64415000D01*
G75*
G02*
X48005000Y-64490000I-75000J0D01*
G01*
G37*
G36*
G01*
X48505000Y-64490000D02*
X48355000Y-64490000D01*
G75*
G02*
X48280000Y-64415000I0J75000D01*
G01*
X48280000Y-63015000D01*
G75*
G02*
X48355000Y-62940000I75000J0D01*
G01*
X48505000Y-62940000D01*
G75*
G02*
X48580000Y-63015000I0J-75000D01*
G01*
X48580000Y-64415000D01*
G75*
G02*
X48505000Y-64490000I-75000J0D01*
G01*
G37*
G36*
G01*
X49005000Y-64490000D02*
X48855000Y-64490000D01*
G75*
G02*
X48780000Y-64415000I0J75000D01*
G01*
X48780000Y-63015000D01*
G75*
G02*
X48855000Y-62940000I75000J0D01*
G01*
X49005000Y-62940000D01*
G75*
G02*
X49080000Y-63015000I0J-75000D01*
G01*
X49080000Y-64415000D01*
G75*
G02*
X49005000Y-64490000I-75000J0D01*
G01*
G37*
G36*
G01*
X49505000Y-64490000D02*
X49355000Y-64490000D01*
G75*
G02*
X49280000Y-64415000I0J75000D01*
G01*
X49280000Y-63015000D01*
G75*
G02*
X49355000Y-62940000I75000J0D01*
G01*
X49505000Y-62940000D01*
G75*
G02*
X49580000Y-63015000I0J-75000D01*
G01*
X49580000Y-64415000D01*
G75*
G02*
X49505000Y-64490000I-75000J0D01*
G01*
G37*
G36*
G01*
X50005000Y-64490000D02*
X49855000Y-64490000D01*
G75*
G02*
X49780000Y-64415000I0J75000D01*
G01*
X49780000Y-63015000D01*
G75*
G02*
X49855000Y-62940000I75000J0D01*
G01*
X50005000Y-62940000D01*
G75*
G02*
X50080000Y-63015000I0J-75000D01*
G01*
X50080000Y-64415000D01*
G75*
G02*
X50005000Y-64490000I-75000J0D01*
G01*
G37*
G36*
G01*
X50505000Y-64490000D02*
X50355000Y-64490000D01*
G75*
G02*
X50280000Y-64415000I0J75000D01*
G01*
X50280000Y-63015000D01*
G75*
G02*
X50355000Y-62940000I75000J0D01*
G01*
X50505000Y-62940000D01*
G75*
G02*
X50580000Y-63015000I0J-75000D01*
G01*
X50580000Y-64415000D01*
G75*
G02*
X50505000Y-64490000I-75000J0D01*
G01*
G37*
G36*
G01*
X51005000Y-64490000D02*
X50855000Y-64490000D01*
G75*
G02*
X50780000Y-64415000I0J75000D01*
G01*
X50780000Y-63015000D01*
G75*
G02*
X50855000Y-62940000I75000J0D01*
G01*
X51005000Y-62940000D01*
G75*
G02*
X51080000Y-63015000I0J-75000D01*
G01*
X51080000Y-64415000D01*
G75*
G02*
X51005000Y-64490000I-75000J0D01*
G01*
G37*
G36*
G01*
X51505000Y-64490000D02*
X51355000Y-64490000D01*
G75*
G02*
X51280000Y-64415000I0J75000D01*
G01*
X51280000Y-63015000D01*
G75*
G02*
X51355000Y-62940000I75000J0D01*
G01*
X51505000Y-62940000D01*
G75*
G02*
X51580000Y-63015000I0J-75000D01*
G01*
X51580000Y-64415000D01*
G75*
G02*
X51505000Y-64490000I-75000J0D01*
G01*
G37*
G36*
G01*
X52005000Y-64490000D02*
X51855000Y-64490000D01*
G75*
G02*
X51780000Y-64415000I0J75000D01*
G01*
X51780000Y-63015000D01*
G75*
G02*
X51855000Y-62940000I75000J0D01*
G01*
X52005000Y-62940000D01*
G75*
G02*
X52080000Y-63015000I0J-75000D01*
G01*
X52080000Y-64415000D01*
G75*
G02*
X52005000Y-64490000I-75000J0D01*
G01*
G37*
G36*
G01*
X52505000Y-64490000D02*
X52355000Y-64490000D01*
G75*
G02*
X52280000Y-64415000I0J75000D01*
G01*
X52280000Y-63015000D01*
G75*
G02*
X52355000Y-62940000I75000J0D01*
G01*
X52505000Y-62940000D01*
G75*
G02*
X52580000Y-63015000I0J-75000D01*
G01*
X52580000Y-64415000D01*
G75*
G02*
X52505000Y-64490000I-75000J0D01*
G01*
G37*
G36*
G01*
X53005000Y-64490000D02*
X52855000Y-64490000D01*
G75*
G02*
X52780000Y-64415000I0J75000D01*
G01*
X52780000Y-63015000D01*
G75*
G02*
X52855000Y-62940000I75000J0D01*
G01*
X53005000Y-62940000D01*
G75*
G02*
X53080000Y-63015000I0J-75000D01*
G01*
X53080000Y-64415000D01*
G75*
G02*
X53005000Y-64490000I-75000J0D01*
G01*
G37*
G36*
G01*
X53505000Y-64490000D02*
X53355000Y-64490000D01*
G75*
G02*
X53280000Y-64415000I0J75000D01*
G01*
X53280000Y-63015000D01*
G75*
G02*
X53355000Y-62940000I75000J0D01*
G01*
X53505000Y-62940000D01*
G75*
G02*
X53580000Y-63015000I0J-75000D01*
G01*
X53580000Y-64415000D01*
G75*
G02*
X53505000Y-64490000I-75000J0D01*
G01*
G37*
G36*
G01*
X56055000Y-65790000D02*
X54655000Y-65790000D01*
G75*
G02*
X54580000Y-65715000I0J75000D01*
G01*
X54580000Y-65565000D01*
G75*
G02*
X54655000Y-65490000I75000J0D01*
G01*
X56055000Y-65490000D01*
G75*
G02*
X56130000Y-65565000I0J-75000D01*
G01*
X56130000Y-65715000D01*
G75*
G02*
X56055000Y-65790000I-75000J0D01*
G01*
G37*
G36*
G01*
X56055000Y-66290000D02*
X54655000Y-66290000D01*
G75*
G02*
X54580000Y-66215000I0J75000D01*
G01*
X54580000Y-66065000D01*
G75*
G02*
X54655000Y-65990000I75000J0D01*
G01*
X56055000Y-65990000D01*
G75*
G02*
X56130000Y-66065000I0J-75000D01*
G01*
X56130000Y-66215000D01*
G75*
G02*
X56055000Y-66290000I-75000J0D01*
G01*
G37*
G36*
G01*
X56055000Y-66790000D02*
X54655000Y-66790000D01*
G75*
G02*
X54580000Y-66715000I0J75000D01*
G01*
X54580000Y-66565000D01*
G75*
G02*
X54655000Y-66490000I75000J0D01*
G01*
X56055000Y-66490000D01*
G75*
G02*
X56130000Y-66565000I0J-75000D01*
G01*
X56130000Y-66715000D01*
G75*
G02*
X56055000Y-66790000I-75000J0D01*
G01*
G37*
G36*
G01*
X56055000Y-67290000D02*
X54655000Y-67290000D01*
G75*
G02*
X54580000Y-67215000I0J75000D01*
G01*
X54580000Y-67065000D01*
G75*
G02*
X54655000Y-66990000I75000J0D01*
G01*
X56055000Y-66990000D01*
G75*
G02*
X56130000Y-67065000I0J-75000D01*
G01*
X56130000Y-67215000D01*
G75*
G02*
X56055000Y-67290000I-75000J0D01*
G01*
G37*
G36*
G01*
X56055000Y-67790000D02*
X54655000Y-67790000D01*
G75*
G02*
X54580000Y-67715000I0J75000D01*
G01*
X54580000Y-67565000D01*
G75*
G02*
X54655000Y-67490000I75000J0D01*
G01*
X56055000Y-67490000D01*
G75*
G02*
X56130000Y-67565000I0J-75000D01*
G01*
X56130000Y-67715000D01*
G75*
G02*
X56055000Y-67790000I-75000J0D01*
G01*
G37*
G36*
G01*
X56055000Y-68290000D02*
X54655000Y-68290000D01*
G75*
G02*
X54580000Y-68215000I0J75000D01*
G01*
X54580000Y-68065000D01*
G75*
G02*
X54655000Y-67990000I75000J0D01*
G01*
X56055000Y-67990000D01*
G75*
G02*
X56130000Y-68065000I0J-75000D01*
G01*
X56130000Y-68215000D01*
G75*
G02*
X56055000Y-68290000I-75000J0D01*
G01*
G37*
G36*
G01*
X56055000Y-68790000D02*
X54655000Y-68790000D01*
G75*
G02*
X54580000Y-68715000I0J75000D01*
G01*
X54580000Y-68565000D01*
G75*
G02*
X54655000Y-68490000I75000J0D01*
G01*
X56055000Y-68490000D01*
G75*
G02*
X56130000Y-68565000I0J-75000D01*
G01*
X56130000Y-68715000D01*
G75*
G02*
X56055000Y-68790000I-75000J0D01*
G01*
G37*
G36*
G01*
X56055000Y-69290000D02*
X54655000Y-69290000D01*
G75*
G02*
X54580000Y-69215000I0J75000D01*
G01*
X54580000Y-69065000D01*
G75*
G02*
X54655000Y-68990000I75000J0D01*
G01*
X56055000Y-68990000D01*
G75*
G02*
X56130000Y-69065000I0J-75000D01*
G01*
X56130000Y-69215000D01*
G75*
G02*
X56055000Y-69290000I-75000J0D01*
G01*
G37*
G36*
G01*
X56055000Y-69790000D02*
X54655000Y-69790000D01*
G75*
G02*
X54580000Y-69715000I0J75000D01*
G01*
X54580000Y-69565000D01*
G75*
G02*
X54655000Y-69490000I75000J0D01*
G01*
X56055000Y-69490000D01*
G75*
G02*
X56130000Y-69565000I0J-75000D01*
G01*
X56130000Y-69715000D01*
G75*
G02*
X56055000Y-69790000I-75000J0D01*
G01*
G37*
G36*
G01*
X56055000Y-70290000D02*
X54655000Y-70290000D01*
G75*
G02*
X54580000Y-70215000I0J75000D01*
G01*
X54580000Y-70065000D01*
G75*
G02*
X54655000Y-69990000I75000J0D01*
G01*
X56055000Y-69990000D01*
G75*
G02*
X56130000Y-70065000I0J-75000D01*
G01*
X56130000Y-70215000D01*
G75*
G02*
X56055000Y-70290000I-75000J0D01*
G01*
G37*
G36*
G01*
X56055000Y-70790000D02*
X54655000Y-70790000D01*
G75*
G02*
X54580000Y-70715000I0J75000D01*
G01*
X54580000Y-70565000D01*
G75*
G02*
X54655000Y-70490000I75000J0D01*
G01*
X56055000Y-70490000D01*
G75*
G02*
X56130000Y-70565000I0J-75000D01*
G01*
X56130000Y-70715000D01*
G75*
G02*
X56055000Y-70790000I-75000J0D01*
G01*
G37*
G36*
G01*
X56055000Y-71290000D02*
X54655000Y-71290000D01*
G75*
G02*
X54580000Y-71215000I0J75000D01*
G01*
X54580000Y-71065000D01*
G75*
G02*
X54655000Y-70990000I75000J0D01*
G01*
X56055000Y-70990000D01*
G75*
G02*
X56130000Y-71065000I0J-75000D01*
G01*
X56130000Y-71215000D01*
G75*
G02*
X56055000Y-71290000I-75000J0D01*
G01*
G37*
G36*
G01*
X56055000Y-71790000D02*
X54655000Y-71790000D01*
G75*
G02*
X54580000Y-71715000I0J75000D01*
G01*
X54580000Y-71565000D01*
G75*
G02*
X54655000Y-71490000I75000J0D01*
G01*
X56055000Y-71490000D01*
G75*
G02*
X56130000Y-71565000I0J-75000D01*
G01*
X56130000Y-71715000D01*
G75*
G02*
X56055000Y-71790000I-75000J0D01*
G01*
G37*
G36*
G01*
X56055000Y-72290000D02*
X54655000Y-72290000D01*
G75*
G02*
X54580000Y-72215000I0J75000D01*
G01*
X54580000Y-72065000D01*
G75*
G02*
X54655000Y-71990000I75000J0D01*
G01*
X56055000Y-71990000D01*
G75*
G02*
X56130000Y-72065000I0J-75000D01*
G01*
X56130000Y-72215000D01*
G75*
G02*
X56055000Y-72290000I-75000J0D01*
G01*
G37*
G36*
G01*
X56055000Y-72790000D02*
X54655000Y-72790000D01*
G75*
G02*
X54580000Y-72715000I0J75000D01*
G01*
X54580000Y-72565000D01*
G75*
G02*
X54655000Y-72490000I75000J0D01*
G01*
X56055000Y-72490000D01*
G75*
G02*
X56130000Y-72565000I0J-75000D01*
G01*
X56130000Y-72715000D01*
G75*
G02*
X56055000Y-72790000I-75000J0D01*
G01*
G37*
G36*
G01*
X56055000Y-73290000D02*
X54655000Y-73290000D01*
G75*
G02*
X54580000Y-73215000I0J75000D01*
G01*
X54580000Y-73065000D01*
G75*
G02*
X54655000Y-72990000I75000J0D01*
G01*
X56055000Y-72990000D01*
G75*
G02*
X56130000Y-73065000I0J-75000D01*
G01*
X56130000Y-73215000D01*
G75*
G02*
X56055000Y-73290000I-75000J0D01*
G01*
G37*
G36*
G01*
X53505000Y-75840000D02*
X53355000Y-75840000D01*
G75*
G02*
X53280000Y-75765000I0J75000D01*
G01*
X53280000Y-74365000D01*
G75*
G02*
X53355000Y-74290000I75000J0D01*
G01*
X53505000Y-74290000D01*
G75*
G02*
X53580000Y-74365000I0J-75000D01*
G01*
X53580000Y-75765000D01*
G75*
G02*
X53505000Y-75840000I-75000J0D01*
G01*
G37*
G36*
G01*
X53005000Y-75840000D02*
X52855000Y-75840000D01*
G75*
G02*
X52780000Y-75765000I0J75000D01*
G01*
X52780000Y-74365000D01*
G75*
G02*
X52855000Y-74290000I75000J0D01*
G01*
X53005000Y-74290000D01*
G75*
G02*
X53080000Y-74365000I0J-75000D01*
G01*
X53080000Y-75765000D01*
G75*
G02*
X53005000Y-75840000I-75000J0D01*
G01*
G37*
G36*
G01*
X52505000Y-75840000D02*
X52355000Y-75840000D01*
G75*
G02*
X52280000Y-75765000I0J75000D01*
G01*
X52280000Y-74365000D01*
G75*
G02*
X52355000Y-74290000I75000J0D01*
G01*
X52505000Y-74290000D01*
G75*
G02*
X52580000Y-74365000I0J-75000D01*
G01*
X52580000Y-75765000D01*
G75*
G02*
X52505000Y-75840000I-75000J0D01*
G01*
G37*
G36*
G01*
X52005000Y-75840000D02*
X51855000Y-75840000D01*
G75*
G02*
X51780000Y-75765000I0J75000D01*
G01*
X51780000Y-74365000D01*
G75*
G02*
X51855000Y-74290000I75000J0D01*
G01*
X52005000Y-74290000D01*
G75*
G02*
X52080000Y-74365000I0J-75000D01*
G01*
X52080000Y-75765000D01*
G75*
G02*
X52005000Y-75840000I-75000J0D01*
G01*
G37*
G36*
G01*
X51505000Y-75840000D02*
X51355000Y-75840000D01*
G75*
G02*
X51280000Y-75765000I0J75000D01*
G01*
X51280000Y-74365000D01*
G75*
G02*
X51355000Y-74290000I75000J0D01*
G01*
X51505000Y-74290000D01*
G75*
G02*
X51580000Y-74365000I0J-75000D01*
G01*
X51580000Y-75765000D01*
G75*
G02*
X51505000Y-75840000I-75000J0D01*
G01*
G37*
G36*
G01*
X51005000Y-75840000D02*
X50855000Y-75840000D01*
G75*
G02*
X50780000Y-75765000I0J75000D01*
G01*
X50780000Y-74365000D01*
G75*
G02*
X50855000Y-74290000I75000J0D01*
G01*
X51005000Y-74290000D01*
G75*
G02*
X51080000Y-74365000I0J-75000D01*
G01*
X51080000Y-75765000D01*
G75*
G02*
X51005000Y-75840000I-75000J0D01*
G01*
G37*
G36*
G01*
X50505000Y-75840000D02*
X50355000Y-75840000D01*
G75*
G02*
X50280000Y-75765000I0J75000D01*
G01*
X50280000Y-74365000D01*
G75*
G02*
X50355000Y-74290000I75000J0D01*
G01*
X50505000Y-74290000D01*
G75*
G02*
X50580000Y-74365000I0J-75000D01*
G01*
X50580000Y-75765000D01*
G75*
G02*
X50505000Y-75840000I-75000J0D01*
G01*
G37*
G36*
G01*
X50005000Y-75840000D02*
X49855000Y-75840000D01*
G75*
G02*
X49780000Y-75765000I0J75000D01*
G01*
X49780000Y-74365000D01*
G75*
G02*
X49855000Y-74290000I75000J0D01*
G01*
X50005000Y-74290000D01*
G75*
G02*
X50080000Y-74365000I0J-75000D01*
G01*
X50080000Y-75765000D01*
G75*
G02*
X50005000Y-75840000I-75000J0D01*
G01*
G37*
G36*
G01*
X49505000Y-75840000D02*
X49355000Y-75840000D01*
G75*
G02*
X49280000Y-75765000I0J75000D01*
G01*
X49280000Y-74365000D01*
G75*
G02*
X49355000Y-74290000I75000J0D01*
G01*
X49505000Y-74290000D01*
G75*
G02*
X49580000Y-74365000I0J-75000D01*
G01*
X49580000Y-75765000D01*
G75*
G02*
X49505000Y-75840000I-75000J0D01*
G01*
G37*
G36*
G01*
X49005000Y-75840000D02*
X48855000Y-75840000D01*
G75*
G02*
X48780000Y-75765000I0J75000D01*
G01*
X48780000Y-74365000D01*
G75*
G02*
X48855000Y-74290000I75000J0D01*
G01*
X49005000Y-74290000D01*
G75*
G02*
X49080000Y-74365000I0J-75000D01*
G01*
X49080000Y-75765000D01*
G75*
G02*
X49005000Y-75840000I-75000J0D01*
G01*
G37*
G36*
G01*
X48505000Y-75840000D02*
X48355000Y-75840000D01*
G75*
G02*
X48280000Y-75765000I0J75000D01*
G01*
X48280000Y-74365000D01*
G75*
G02*
X48355000Y-74290000I75000J0D01*
G01*
X48505000Y-74290000D01*
G75*
G02*
X48580000Y-74365000I0J-75000D01*
G01*
X48580000Y-75765000D01*
G75*
G02*
X48505000Y-75840000I-75000J0D01*
G01*
G37*
G36*
G01*
X48005000Y-75840000D02*
X47855000Y-75840000D01*
G75*
G02*
X47780000Y-75765000I0J75000D01*
G01*
X47780000Y-74365000D01*
G75*
G02*
X47855000Y-74290000I75000J0D01*
G01*
X48005000Y-74290000D01*
G75*
G02*
X48080000Y-74365000I0J-75000D01*
G01*
X48080000Y-75765000D01*
G75*
G02*
X48005000Y-75840000I-75000J0D01*
G01*
G37*
G36*
G01*
X47505000Y-75840000D02*
X47355000Y-75840000D01*
G75*
G02*
X47280000Y-75765000I0J75000D01*
G01*
X47280000Y-74365000D01*
G75*
G02*
X47355000Y-74290000I75000J0D01*
G01*
X47505000Y-74290000D01*
G75*
G02*
X47580000Y-74365000I0J-75000D01*
G01*
X47580000Y-75765000D01*
G75*
G02*
X47505000Y-75840000I-75000J0D01*
G01*
G37*
G36*
G01*
X47005000Y-75840000D02*
X46855000Y-75840000D01*
G75*
G02*
X46780000Y-75765000I0J75000D01*
G01*
X46780000Y-74365000D01*
G75*
G02*
X46855000Y-74290000I75000J0D01*
G01*
X47005000Y-74290000D01*
G75*
G02*
X47080000Y-74365000I0J-75000D01*
G01*
X47080000Y-75765000D01*
G75*
G02*
X47005000Y-75840000I-75000J0D01*
G01*
G37*
G36*
G01*
X46505000Y-75840000D02*
X46355000Y-75840000D01*
G75*
G02*
X46280000Y-75765000I0J75000D01*
G01*
X46280000Y-74365000D01*
G75*
G02*
X46355000Y-74290000I75000J0D01*
G01*
X46505000Y-74290000D01*
G75*
G02*
X46580000Y-74365000I0J-75000D01*
G01*
X46580000Y-75765000D01*
G75*
G02*
X46505000Y-75840000I-75000J0D01*
G01*
G37*
G36*
G01*
X46005000Y-75840000D02*
X45855000Y-75840000D01*
G75*
G02*
X45780000Y-75765000I0J75000D01*
G01*
X45780000Y-74365000D01*
G75*
G02*
X45855000Y-74290000I75000J0D01*
G01*
X46005000Y-74290000D01*
G75*
G02*
X46080000Y-74365000I0J-75000D01*
G01*
X46080000Y-75765000D01*
G75*
G02*
X46005000Y-75840000I-75000J0D01*
G01*
G37*
D10*
X45550000Y-39150000D03*
X52350000Y-37050000D03*
X55850000Y-50650000D03*
X113000000Y-97100000D03*
X107900000Y-103250000D03*
X103100000Y-92800000D03*
X107188000Y-119380000D03*
X59850000Y-106200000D03*
X59450000Y-117200000D03*
X43450000Y-121550000D03*
X115100000Y-124250000D03*
X37800000Y-106100000D03*
X75184000Y-107696000D03*
X90170000Y-108458000D03*
X86600000Y-47000000D03*
X74000000Y-49600000D03*
X44650000Y-52450000D03*
X48000000Y-48900000D03*
X87300000Y-50100000D03*
X69350000Y-49650000D03*
X101250000Y-53700000D03*
X103400000Y-54800000D03*
X101200000Y-56000000D03*
X103400000Y-57200000D03*
X101200000Y-58400000D03*
X103400000Y-59600000D03*
X101200000Y-60800000D03*
X103400000Y-62000000D03*
X77900000Y-93350000D03*
X101200000Y-63200000D03*
X103400000Y-64400000D03*
X101200000Y-65600000D03*
X103400000Y-66800000D03*
X101200000Y-68000000D03*
X103400000Y-69200000D03*
X101200000Y-70400000D03*
X103400000Y-71600000D03*
X76850000Y-89500000D03*
D16*
X98925000Y-109875000D03*
X98925000Y-114875000D03*
X104925000Y-109875000D03*
X104925000Y-114875000D03*
X59870000Y-114320000D03*
X59870000Y-109320000D03*
X53870000Y-114320000D03*
X53870000Y-109320000D03*
X46150000Y-116510000D03*
X46150000Y-121510000D03*
X52150000Y-116510000D03*
X52150000Y-121510000D03*
X38450000Y-109300000D03*
X38450000Y-114300000D03*
X44450000Y-109300000D03*
X44450000Y-114300000D03*
X109050000Y-112125000D03*
X109050000Y-117125000D03*
X115050000Y-112125000D03*
X115050000Y-117125000D03*
X52175000Y-107100000D03*
X52175000Y-102100000D03*
X46175000Y-107100000D03*
X46175000Y-102100000D03*
D17*
X74448000Y-111168000D03*
X74448000Y-113368000D03*
X71348000Y-113368000D03*
X71348000Y-111168000D03*
X88164000Y-111168000D03*
X88164000Y-113368000D03*
X85064000Y-113368000D03*
X85064000Y-111168000D03*
D18*
X71150000Y-98175000D03*
X77150000Y-98175000D03*
X71150000Y-101925000D03*
X77150000Y-101925000D03*
X82850000Y-98175000D03*
X88850000Y-98175000D03*
X82850000Y-101925000D03*
X88850000Y-101925000D03*
G36*
G01*
X110362500Y-106325000D02*
X110837500Y-106325000D01*
G75*
G02*
X111075000Y-106562500I0J-237500D01*
G01*
X111075000Y-107062500D01*
G75*
G02*
X110837500Y-107300000I-237500J0D01*
G01*
X110362500Y-107300000D01*
G75*
G02*
X110125000Y-107062500I0J237500D01*
G01*
X110125000Y-106562500D01*
G75*
G02*
X110362500Y-106325000I237500J0D01*
G01*
G37*
G36*
G01*
X110362500Y-104500000D02*
X110837500Y-104500000D01*
G75*
G02*
X111075000Y-104737500I0J-237500D01*
G01*
X111075000Y-105237500D01*
G75*
G02*
X110837500Y-105475000I-237500J0D01*
G01*
X110362500Y-105475000D01*
G75*
G02*
X110125000Y-105237500I0J237500D01*
G01*
X110125000Y-104737500D01*
G75*
G02*
X110362500Y-104500000I237500J0D01*
G01*
G37*
G36*
G01*
X48650000Y-38987500D02*
X48650000Y-39462500D01*
G75*
G02*
X48412500Y-39700000I-237500J0D01*
G01*
X47912500Y-39700000D01*
G75*
G02*
X47675000Y-39462500I0J237500D01*
G01*
X47675000Y-38987500D01*
G75*
G02*
X47912500Y-38750000I237500J0D01*
G01*
X48412500Y-38750000D01*
G75*
G02*
X48650000Y-38987500I0J-237500D01*
G01*
G37*
G36*
G01*
X50475000Y-38987500D02*
X50475000Y-39462500D01*
G75*
G02*
X50237500Y-39700000I-237500J0D01*
G01*
X49737500Y-39700000D01*
G75*
G02*
X49500000Y-39462500I0J237500D01*
G01*
X49500000Y-38987500D01*
G75*
G02*
X49737500Y-38750000I237500J0D01*
G01*
X50237500Y-38750000D01*
G75*
G02*
X50475000Y-38987500I0J-237500D01*
G01*
G37*
G36*
G01*
X54612500Y-45900000D02*
X54137500Y-45900000D01*
G75*
G02*
X53900000Y-45662500I0J237500D01*
G01*
X53900000Y-45162500D01*
G75*
G02*
X54137500Y-44925000I237500J0D01*
G01*
X54612500Y-44925000D01*
G75*
G02*
X54850000Y-45162500I0J-237500D01*
G01*
X54850000Y-45662500D01*
G75*
G02*
X54612500Y-45900000I-237500J0D01*
G01*
G37*
G36*
G01*
X54612500Y-47725000D02*
X54137500Y-47725000D01*
G75*
G02*
X53900000Y-47487500I0J237500D01*
G01*
X53900000Y-46987500D01*
G75*
G02*
X54137500Y-46750000I237500J0D01*
G01*
X54612500Y-46750000D01*
G75*
G02*
X54850000Y-46987500I0J-237500D01*
G01*
X54850000Y-47487500D01*
G75*
G02*
X54612500Y-47725000I-237500J0D01*
G01*
G37*
G36*
G01*
X52237500Y-46750000D02*
X52712500Y-46750000D01*
G75*
G02*
X52950000Y-46987500I0J-237500D01*
G01*
X52950000Y-47487500D01*
G75*
G02*
X52712500Y-47725000I-237500J0D01*
G01*
X52237500Y-47725000D01*
G75*
G02*
X52000000Y-47487500I0J237500D01*
G01*
X52000000Y-46987500D01*
G75*
G02*
X52237500Y-46750000I237500J0D01*
G01*
G37*
G36*
G01*
X52237500Y-44925000D02*
X52712500Y-44925000D01*
G75*
G02*
X52950000Y-45162500I0J-237500D01*
G01*
X52950000Y-45662500D01*
G75*
G02*
X52712500Y-45900000I-237500J0D01*
G01*
X52237500Y-45900000D01*
G75*
G02*
X52000000Y-45662500I0J237500D01*
G01*
X52000000Y-45162500D01*
G75*
G02*
X52237500Y-44925000I237500J0D01*
G01*
G37*
G36*
G01*
X58775000Y-91287500D02*
X58775000Y-90812500D01*
G75*
G02*
X59012500Y-90575000I237500J0D01*
G01*
X59512500Y-90575000D01*
G75*
G02*
X59750000Y-90812500I0J-237500D01*
G01*
X59750000Y-91287500D01*
G75*
G02*
X59512500Y-91525000I-237500J0D01*
G01*
X59012500Y-91525000D01*
G75*
G02*
X58775000Y-91287500I0J237500D01*
G01*
G37*
G36*
G01*
X56950000Y-91287500D02*
X56950000Y-90812500D01*
G75*
G02*
X57187500Y-90575000I237500J0D01*
G01*
X57687500Y-90575000D01*
G75*
G02*
X57925000Y-90812500I0J-237500D01*
G01*
X57925000Y-91287500D01*
G75*
G02*
X57687500Y-91525000I-237500J0D01*
G01*
X57187500Y-91525000D01*
G75*
G02*
X56950000Y-91287500I0J237500D01*
G01*
G37*
G36*
G01*
X102975000Y-87337500D02*
X102975000Y-86862500D01*
G75*
G02*
X103212500Y-86625000I237500J0D01*
G01*
X103712500Y-86625000D01*
G75*
G02*
X103950000Y-86862500I0J-237500D01*
G01*
X103950000Y-87337500D01*
G75*
G02*
X103712500Y-87575000I-237500J0D01*
G01*
X103212500Y-87575000D01*
G75*
G02*
X102975000Y-87337500I0J237500D01*
G01*
G37*
G36*
G01*
X101150000Y-87337500D02*
X101150000Y-86862500D01*
G75*
G02*
X101387500Y-86625000I237500J0D01*
G01*
X101887500Y-86625000D01*
G75*
G02*
X102125000Y-86862500I0J-237500D01*
G01*
X102125000Y-87337500D01*
G75*
G02*
X101887500Y-87575000I-237500J0D01*
G01*
X101387500Y-87575000D01*
G75*
G02*
X101150000Y-87337500I0J237500D01*
G01*
G37*
G36*
G01*
X57587500Y-87625000D02*
X57112500Y-87625000D01*
G75*
G02*
X56875000Y-87387500I0J237500D01*
G01*
X56875000Y-86887500D01*
G75*
G02*
X57112500Y-86650000I237500J0D01*
G01*
X57587500Y-86650000D01*
G75*
G02*
X57825000Y-86887500I0J-237500D01*
G01*
X57825000Y-87387500D01*
G75*
G02*
X57587500Y-87625000I-237500J0D01*
G01*
G37*
G36*
G01*
X57587500Y-89450000D02*
X57112500Y-89450000D01*
G75*
G02*
X56875000Y-89212500I0J237500D01*
G01*
X56875000Y-88712500D01*
G75*
G02*
X57112500Y-88475000I237500J0D01*
G01*
X57587500Y-88475000D01*
G75*
G02*
X57825000Y-88712500I0J-237500D01*
G01*
X57825000Y-89212500D01*
G75*
G02*
X57587500Y-89450000I-237500J0D01*
G01*
G37*
G36*
G01*
X97575000Y-84762500D02*
X97575000Y-85237500D01*
G75*
G02*
X97337500Y-85475000I-237500J0D01*
G01*
X96837500Y-85475000D01*
G75*
G02*
X96600000Y-85237500I0J237500D01*
G01*
X96600000Y-84762500D01*
G75*
G02*
X96837500Y-84525000I237500J0D01*
G01*
X97337500Y-84525000D01*
G75*
G02*
X97575000Y-84762500I0J-237500D01*
G01*
G37*
G36*
G01*
X99400000Y-84762500D02*
X99400000Y-85237500D01*
G75*
G02*
X99162500Y-85475000I-237500J0D01*
G01*
X98662500Y-85475000D01*
G75*
G02*
X98425000Y-85237500I0J237500D01*
G01*
X98425000Y-84762500D01*
G75*
G02*
X98662500Y-84525000I237500J0D01*
G01*
X99162500Y-84525000D01*
G75*
G02*
X99400000Y-84762500I0J-237500D01*
G01*
G37*
G36*
G01*
X110837500Y-95775000D02*
X110362500Y-95775000D01*
G75*
G02*
X110125000Y-95537500I0J237500D01*
G01*
X110125000Y-95037500D01*
G75*
G02*
X110362500Y-94800000I237500J0D01*
G01*
X110837500Y-94800000D01*
G75*
G02*
X111075000Y-95037500I0J-237500D01*
G01*
X111075000Y-95537500D01*
G75*
G02*
X110837500Y-95775000I-237500J0D01*
G01*
G37*
G36*
G01*
X110837500Y-97600000D02*
X110362500Y-97600000D01*
G75*
G02*
X110125000Y-97362500I0J237500D01*
G01*
X110125000Y-96862500D01*
G75*
G02*
X110362500Y-96625000I237500J0D01*
G01*
X110837500Y-96625000D01*
G75*
G02*
X111075000Y-96862500I0J-237500D01*
G01*
X111075000Y-97362500D01*
G75*
G02*
X110837500Y-97600000I-237500J0D01*
G01*
G37*
G36*
G01*
X101175000Y-102612500D02*
X101175000Y-103087500D01*
G75*
G02*
X100937500Y-103325000I-237500J0D01*
G01*
X100437500Y-103325000D01*
G75*
G02*
X100200000Y-103087500I0J237500D01*
G01*
X100200000Y-102612500D01*
G75*
G02*
X100437500Y-102375000I237500J0D01*
G01*
X100937500Y-102375000D01*
G75*
G02*
X101175000Y-102612500I0J-237500D01*
G01*
G37*
G36*
G01*
X103000000Y-102612500D02*
X103000000Y-103087500D01*
G75*
G02*
X102762500Y-103325000I-237500J0D01*
G01*
X102262500Y-103325000D01*
G75*
G02*
X102025000Y-103087500I0J237500D01*
G01*
X102025000Y-102612500D01*
G75*
G02*
X102262500Y-102375000I237500J0D01*
G01*
X102762500Y-102375000D01*
G75*
G02*
X103000000Y-102612500I0J-237500D01*
G01*
G37*
G36*
G01*
X98875000Y-95962500D02*
X98875000Y-96437500D01*
G75*
G02*
X98637500Y-96675000I-237500J0D01*
G01*
X98137500Y-96675000D01*
G75*
G02*
X97900000Y-96437500I0J237500D01*
G01*
X97900000Y-95962500D01*
G75*
G02*
X98137500Y-95725000I237500J0D01*
G01*
X98637500Y-95725000D01*
G75*
G02*
X98875000Y-95962500I0J-237500D01*
G01*
G37*
G36*
G01*
X100700000Y-95962500D02*
X100700000Y-96437500D01*
G75*
G02*
X100462500Y-96675000I-237500J0D01*
G01*
X99962500Y-96675000D01*
G75*
G02*
X99725000Y-96437500I0J237500D01*
G01*
X99725000Y-95962500D01*
G75*
G02*
X99962500Y-95725000I237500J0D01*
G01*
X100462500Y-95725000D01*
G75*
G02*
X100700000Y-95962500I0J-237500D01*
G01*
G37*
G36*
G01*
X103575000Y-95862500D02*
X103575000Y-96337500D01*
G75*
G02*
X103337500Y-96575000I-237500J0D01*
G01*
X102837500Y-96575000D01*
G75*
G02*
X102600000Y-96337500I0J237500D01*
G01*
X102600000Y-95862500D01*
G75*
G02*
X102837500Y-95625000I237500J0D01*
G01*
X103337500Y-95625000D01*
G75*
G02*
X103575000Y-95862500I0J-237500D01*
G01*
G37*
G36*
G01*
X105400000Y-95862500D02*
X105400000Y-96337500D01*
G75*
G02*
X105162500Y-96575000I-237500J0D01*
G01*
X104662500Y-96575000D01*
G75*
G02*
X104425000Y-96337500I0J237500D01*
G01*
X104425000Y-95862500D01*
G75*
G02*
X104662500Y-95625000I237500J0D01*
G01*
X105162500Y-95625000D01*
G75*
G02*
X105400000Y-95862500I0J-237500D01*
G01*
G37*
G36*
G01*
X62487500Y-42125000D02*
X62012500Y-42125000D01*
G75*
G02*
X61775000Y-41887500I0J237500D01*
G01*
X61775000Y-41387500D01*
G75*
G02*
X62012500Y-41150000I237500J0D01*
G01*
X62487500Y-41150000D01*
G75*
G02*
X62725000Y-41387500I0J-237500D01*
G01*
X62725000Y-41887500D01*
G75*
G02*
X62487500Y-42125000I-237500J0D01*
G01*
G37*
G36*
G01*
X62487500Y-43950000D02*
X62012500Y-43950000D01*
G75*
G02*
X61775000Y-43712500I0J237500D01*
G01*
X61775000Y-43212500D01*
G75*
G02*
X62012500Y-42975000I237500J0D01*
G01*
X62487500Y-42975000D01*
G75*
G02*
X62725000Y-43212500I0J-237500D01*
G01*
X62725000Y-43712500D01*
G75*
G02*
X62487500Y-43950000I-237500J0D01*
G01*
G37*
G36*
G01*
X104275000Y-117437500D02*
X104275000Y-116962500D01*
G75*
G02*
X104512500Y-116725000I237500J0D01*
G01*
X105012500Y-116725000D01*
G75*
G02*
X105250000Y-116962500I0J-237500D01*
G01*
X105250000Y-117437500D01*
G75*
G02*
X105012500Y-117675000I-237500J0D01*
G01*
X104512500Y-117675000D01*
G75*
G02*
X104275000Y-117437500I0J237500D01*
G01*
G37*
G36*
G01*
X102450000Y-117437500D02*
X102450000Y-116962500D01*
G75*
G02*
X102687500Y-116725000I237500J0D01*
G01*
X103187500Y-116725000D01*
G75*
G02*
X103425000Y-116962500I0J-237500D01*
G01*
X103425000Y-117437500D01*
G75*
G02*
X103187500Y-117675000I-237500J0D01*
G01*
X102687500Y-117675000D01*
G75*
G02*
X102450000Y-117437500I0J237500D01*
G01*
G37*
G36*
G01*
X57362500Y-105725000D02*
X57837500Y-105725000D01*
G75*
G02*
X58075000Y-105962500I0J-237500D01*
G01*
X58075000Y-106462500D01*
G75*
G02*
X57837500Y-106700000I-237500J0D01*
G01*
X57362500Y-106700000D01*
G75*
G02*
X57125000Y-106462500I0J237500D01*
G01*
X57125000Y-105962500D01*
G75*
G02*
X57362500Y-105725000I237500J0D01*
G01*
G37*
G36*
G01*
X57362500Y-103900000D02*
X57837500Y-103900000D01*
G75*
G02*
X58075000Y-104137500I0J-237500D01*
G01*
X58075000Y-104637500D01*
G75*
G02*
X57837500Y-104875000I-237500J0D01*
G01*
X57362500Y-104875000D01*
G75*
G02*
X57125000Y-104637500I0J237500D01*
G01*
X57125000Y-104137500D01*
G75*
G02*
X57362500Y-103900000I237500J0D01*
G01*
G37*
G36*
G01*
X57637500Y-117675000D02*
X57162500Y-117675000D01*
G75*
G02*
X56925000Y-117437500I0J237500D01*
G01*
X56925000Y-116937500D01*
G75*
G02*
X57162500Y-116700000I237500J0D01*
G01*
X57637500Y-116700000D01*
G75*
G02*
X57875000Y-116937500I0J-237500D01*
G01*
X57875000Y-117437500D01*
G75*
G02*
X57637500Y-117675000I-237500J0D01*
G01*
G37*
G36*
G01*
X57637500Y-119500000D02*
X57162500Y-119500000D01*
G75*
G02*
X56925000Y-119262500I0J237500D01*
G01*
X56925000Y-118762500D01*
G75*
G02*
X57162500Y-118525000I237500J0D01*
G01*
X57637500Y-118525000D01*
G75*
G02*
X57875000Y-118762500I0J-237500D01*
G01*
X57875000Y-119262500D01*
G75*
G02*
X57637500Y-119500000I-237500J0D01*
G01*
G37*
G36*
G01*
X42975000Y-119837500D02*
X42975000Y-119362500D01*
G75*
G02*
X43212500Y-119125000I237500J0D01*
G01*
X43712500Y-119125000D01*
G75*
G02*
X43950000Y-119362500I0J-237500D01*
G01*
X43950000Y-119837500D01*
G75*
G02*
X43712500Y-120075000I-237500J0D01*
G01*
X43212500Y-120075000D01*
G75*
G02*
X42975000Y-119837500I0J237500D01*
G01*
G37*
G36*
G01*
X41150000Y-119837500D02*
X41150000Y-119362500D01*
G75*
G02*
X41387500Y-119125000I237500J0D01*
G01*
X41887500Y-119125000D01*
G75*
G02*
X42125000Y-119362500I0J-237500D01*
G01*
X42125000Y-119837500D01*
G75*
G02*
X41887500Y-120075000I-237500J0D01*
G01*
X41387500Y-120075000D01*
G75*
G02*
X41150000Y-119837500I0J237500D01*
G01*
G37*
G36*
G01*
X114625000Y-122087500D02*
X114625000Y-121612500D01*
G75*
G02*
X114862500Y-121375000I237500J0D01*
G01*
X115362500Y-121375000D01*
G75*
G02*
X115600000Y-121612500I0J-237500D01*
G01*
X115600000Y-122087500D01*
G75*
G02*
X115362500Y-122325000I-237500J0D01*
G01*
X114862500Y-122325000D01*
G75*
G02*
X114625000Y-122087500I0J237500D01*
G01*
G37*
G36*
G01*
X112800000Y-122087500D02*
X112800000Y-121612500D01*
G75*
G02*
X113037500Y-121375000I237500J0D01*
G01*
X113537500Y-121375000D01*
G75*
G02*
X113775000Y-121612500I0J-237500D01*
G01*
X113775000Y-122087500D01*
G75*
G02*
X113537500Y-122325000I-237500J0D01*
G01*
X113037500Y-122325000D01*
G75*
G02*
X112800000Y-122087500I0J237500D01*
G01*
G37*
G36*
G01*
X39762500Y-105725000D02*
X40237500Y-105725000D01*
G75*
G02*
X40475000Y-105962500I0J-237500D01*
G01*
X40475000Y-106462500D01*
G75*
G02*
X40237500Y-106700000I-237500J0D01*
G01*
X39762500Y-106700000D01*
G75*
G02*
X39525000Y-106462500I0J237500D01*
G01*
X39525000Y-105962500D01*
G75*
G02*
X39762500Y-105725000I237500J0D01*
G01*
G37*
G36*
G01*
X39762500Y-103900000D02*
X40237500Y-103900000D01*
G75*
G02*
X40475000Y-104137500I0J-237500D01*
G01*
X40475000Y-104637500D01*
G75*
G02*
X40237500Y-104875000I-237500J0D01*
G01*
X39762500Y-104875000D01*
G75*
G02*
X39525000Y-104637500I0J237500D01*
G01*
X39525000Y-104137500D01*
G75*
G02*
X39762500Y-103900000I237500J0D01*
G01*
G37*
G36*
G01*
X71999000Y-107007500D02*
X71999000Y-106532500D01*
G75*
G02*
X72236500Y-106295000I237500J0D01*
G01*
X72736500Y-106295000D01*
G75*
G02*
X72974000Y-106532500I0J-237500D01*
G01*
X72974000Y-107007500D01*
G75*
G02*
X72736500Y-107245000I-237500J0D01*
G01*
X72236500Y-107245000D01*
G75*
G02*
X71999000Y-107007500I0J237500D01*
G01*
G37*
G36*
G01*
X70174000Y-107007500D02*
X70174000Y-106532500D01*
G75*
G02*
X70411500Y-106295000I237500J0D01*
G01*
X70911500Y-106295000D01*
G75*
G02*
X71149000Y-106532500I0J-237500D01*
G01*
X71149000Y-107007500D01*
G75*
G02*
X70911500Y-107245000I-237500J0D01*
G01*
X70411500Y-107245000D01*
G75*
G02*
X70174000Y-107007500I0J237500D01*
G01*
G37*
G36*
G01*
X85039000Y-108184500D02*
X85039000Y-108659500D01*
G75*
G02*
X84801500Y-108897000I-237500J0D01*
G01*
X84301500Y-108897000D01*
G75*
G02*
X84064000Y-108659500I0J237500D01*
G01*
X84064000Y-108184500D01*
G75*
G02*
X84301500Y-107947000I237500J0D01*
G01*
X84801500Y-107947000D01*
G75*
G02*
X85039000Y-108184500I0J-237500D01*
G01*
G37*
G36*
G01*
X86864000Y-108184500D02*
X86864000Y-108659500D01*
G75*
G02*
X86626500Y-108897000I-237500J0D01*
G01*
X86126500Y-108897000D01*
G75*
G02*
X85889000Y-108659500I0J237500D01*
G01*
X85889000Y-108184500D01*
G75*
G02*
X86126500Y-107947000I237500J0D01*
G01*
X86626500Y-107947000D01*
G75*
G02*
X86864000Y-108184500I0J-237500D01*
G01*
G37*
G36*
G01*
X76025000Y-79962500D02*
X76025000Y-80437500D01*
G75*
G02*
X75787500Y-80675000I-237500J0D01*
G01*
X75287500Y-80675000D01*
G75*
G02*
X75050000Y-80437500I0J237500D01*
G01*
X75050000Y-79962500D01*
G75*
G02*
X75287500Y-79725000I237500J0D01*
G01*
X75787500Y-79725000D01*
G75*
G02*
X76025000Y-79962500I0J-237500D01*
G01*
G37*
G36*
G01*
X77850000Y-79962500D02*
X77850000Y-80437500D01*
G75*
G02*
X77612500Y-80675000I-237500J0D01*
G01*
X77112500Y-80675000D01*
G75*
G02*
X76875000Y-80437500I0J237500D01*
G01*
X76875000Y-79962500D01*
G75*
G02*
X77112500Y-79725000I237500J0D01*
G01*
X77612500Y-79725000D01*
G75*
G02*
X77850000Y-79962500I0J-237500D01*
G01*
G37*
G36*
G01*
X78025000Y-50837500D02*
X78025000Y-50362500D01*
G75*
G02*
X78262500Y-50125000I237500J0D01*
G01*
X78762500Y-50125000D01*
G75*
G02*
X79000000Y-50362500I0J-237500D01*
G01*
X79000000Y-50837500D01*
G75*
G02*
X78762500Y-51075000I-237500J0D01*
G01*
X78262500Y-51075000D01*
G75*
G02*
X78025000Y-50837500I0J237500D01*
G01*
G37*
G36*
G01*
X76200000Y-50837500D02*
X76200000Y-50362500D01*
G75*
G02*
X76437500Y-50125000I237500J0D01*
G01*
X76937500Y-50125000D01*
G75*
G02*
X77175000Y-50362500I0J-237500D01*
G01*
X77175000Y-50837500D01*
G75*
G02*
X76937500Y-51075000I-237500J0D01*
G01*
X76437500Y-51075000D01*
G75*
G02*
X76200000Y-50837500I0J237500D01*
G01*
G37*
G36*
G01*
X76575000Y-95162500D02*
X76575000Y-95637500D01*
G75*
G02*
X76337500Y-95875000I-237500J0D01*
G01*
X75837500Y-95875000D01*
G75*
G02*
X75600000Y-95637500I0J237500D01*
G01*
X75600000Y-95162500D01*
G75*
G02*
X75837500Y-94925000I237500J0D01*
G01*
X76337500Y-94925000D01*
G75*
G02*
X76575000Y-95162500I0J-237500D01*
G01*
G37*
G36*
G01*
X78400000Y-95162500D02*
X78400000Y-95637500D01*
G75*
G02*
X78162500Y-95875000I-237500J0D01*
G01*
X77662500Y-95875000D01*
G75*
G02*
X77425000Y-95637500I0J237500D01*
G01*
X77425000Y-95162500D01*
G75*
G02*
X77662500Y-94925000I237500J0D01*
G01*
X78162500Y-94925000D01*
G75*
G02*
X78400000Y-95162500I0J-237500D01*
G01*
G37*
G36*
G01*
X41462500Y-48975000D02*
X41937500Y-48975000D01*
G75*
G02*
X42175000Y-49212500I0J-237500D01*
G01*
X42175000Y-49712500D01*
G75*
G02*
X41937500Y-49950000I-237500J0D01*
G01*
X41462500Y-49950000D01*
G75*
G02*
X41225000Y-49712500I0J237500D01*
G01*
X41225000Y-49212500D01*
G75*
G02*
X41462500Y-48975000I237500J0D01*
G01*
G37*
G36*
G01*
X41462500Y-47150000D02*
X41937500Y-47150000D01*
G75*
G02*
X42175000Y-47387500I0J-237500D01*
G01*
X42175000Y-47887500D01*
G75*
G02*
X41937500Y-48125000I-237500J0D01*
G01*
X41462500Y-48125000D01*
G75*
G02*
X41225000Y-47887500I0J237500D01*
G01*
X41225000Y-47387500D01*
G75*
G02*
X41462500Y-47150000I237500J0D01*
G01*
G37*
G36*
G01*
X81525000Y-95212500D02*
X81525000Y-95687500D01*
G75*
G02*
X81287500Y-95925000I-237500J0D01*
G01*
X80787500Y-95925000D01*
G75*
G02*
X80550000Y-95687500I0J237500D01*
G01*
X80550000Y-95212500D01*
G75*
G02*
X80787500Y-94975000I237500J0D01*
G01*
X81287500Y-94975000D01*
G75*
G02*
X81525000Y-95212500I0J-237500D01*
G01*
G37*
G36*
G01*
X83350000Y-95212500D02*
X83350000Y-95687500D01*
G75*
G02*
X83112500Y-95925000I-237500J0D01*
G01*
X82612500Y-95925000D01*
G75*
G02*
X82375000Y-95687500I0J237500D01*
G01*
X82375000Y-95212500D01*
G75*
G02*
X82612500Y-94975000I237500J0D01*
G01*
X83112500Y-94975000D01*
G75*
G02*
X83350000Y-95212500I0J-237500D01*
G01*
G37*
D15*
X50275000Y-42625000D03*
X48275000Y-43575000D03*
X48275000Y-41675000D03*
X52475000Y-42625000D03*
X54475000Y-41675000D03*
X54475000Y-43575000D03*
X105900000Y-100100000D03*
X107900000Y-99150000D03*
X107900000Y-101050000D03*
X71350000Y-52550000D03*
X69350000Y-53500000D03*
X69350000Y-51600000D03*
D19*
X68300000Y-88250000D03*
X65200000Y-88250000D03*
X110150000Y-83200000D03*
X107050000Y-83200000D03*
D20*
X114300000Y-48000000D03*
D21*
X114300000Y-50000000D03*
D20*
X72370000Y-120760000D03*
D21*
X70370000Y-120760000D03*
D22*
X74250000Y-55750000D03*
X74250000Y-56250000D03*
X74250000Y-56750000D03*
X74250000Y-57250000D03*
X74250000Y-57750000D03*
X74250000Y-58250000D03*
X74250000Y-58750000D03*
X74250000Y-59250000D03*
X74250000Y-59750000D03*
X74250000Y-60250000D03*
X74250000Y-60750000D03*
X74250000Y-61250000D03*
X74250000Y-61750000D03*
X74250000Y-62250000D03*
X74250000Y-62750000D03*
X74250000Y-63250000D03*
X74250000Y-63750000D03*
X74250000Y-64250000D03*
X74250000Y-64750000D03*
X74250000Y-65250000D03*
X74250000Y-65750000D03*
X74250000Y-66250000D03*
X74250000Y-66750000D03*
X74250000Y-67250000D03*
X74250000Y-67750000D03*
X74250000Y-68250000D03*
X74250000Y-68750000D03*
X74250000Y-69250000D03*
X74250000Y-69750000D03*
X74250000Y-70250000D03*
X74250000Y-70750000D03*
X74250000Y-71250000D03*
X74250000Y-71750000D03*
X74250000Y-72250000D03*
X74250000Y-72750000D03*
X74250000Y-73250000D03*
X74250000Y-73750000D03*
X74250000Y-74250000D03*
X74250000Y-74750000D03*
X74250000Y-75250000D03*
D23*
X79900000Y-53600000D03*
X79900000Y-77400000D03*
D24*
X38070000Y-48950000D03*
X38070000Y-48150000D03*
X38070000Y-43350000D03*
X38070000Y-42550000D03*
X38070000Y-42250000D03*
X38070000Y-43050000D03*
X38070000Y-43850000D03*
X38070000Y-44350000D03*
X38070000Y-44850000D03*
X38070000Y-45350000D03*
X38070000Y-45850000D03*
X38070000Y-46350000D03*
X38070000Y-46850000D03*
X38070000Y-47350000D03*
X38070000Y-47850000D03*
X38070000Y-48650000D03*
D25*
X37005000Y-42710000D03*
X37005000Y-48490000D03*
D26*
X33325000Y-49920000D03*
X33325000Y-41280000D03*
D27*
X37505000Y-49920000D03*
X37505000Y-41280000D03*
G36*
G01*
X60525001Y-42575000D02*
X59624999Y-42575000D01*
G75*
G02*
X59375000Y-42325001I0J249999D01*
G01*
X59375000Y-41674999D01*
G75*
G02*
X59624999Y-41425000I249999J0D01*
G01*
X60525001Y-41425000D01*
G75*
G02*
X60775000Y-41674999I0J-249999D01*
G01*
X60775000Y-42325001D01*
G75*
G02*
X60525001Y-42575000I-249999J0D01*
G01*
G37*
G36*
G01*
X60525001Y-44625000D02*
X59624999Y-44625000D01*
G75*
G02*
X59375000Y-44375001I0J249999D01*
G01*
X59375000Y-43724999D01*
G75*
G02*
X59624999Y-43475000I249999J0D01*
G01*
X60525001Y-43475000D01*
G75*
G02*
X60775000Y-43724999I0J-249999D01*
G01*
X60775000Y-44375001D01*
G75*
G02*
X60525001Y-44625000I-249999J0D01*
G01*
G37*
G36*
G01*
X112260000Y-103280001D02*
X112260000Y-102379999D01*
G75*
G02*
X112509999Y-102130000I249999J0D01*
G01*
X113160001Y-102130000D01*
G75*
G02*
X113410000Y-102379999I0J-249999D01*
G01*
X113410000Y-103280001D01*
G75*
G02*
X113160001Y-103530000I-249999J0D01*
G01*
X112509999Y-103530000D01*
G75*
G02*
X112260000Y-103280001I0J249999D01*
G01*
G37*
G36*
G01*
X110210000Y-103280001D02*
X110210000Y-102379999D01*
G75*
G02*
X110459999Y-102130000I249999J0D01*
G01*
X111110001Y-102130000D01*
G75*
G02*
X111360000Y-102379999I0J-249999D01*
G01*
X111360000Y-103280001D01*
G75*
G02*
X111110001Y-103530000I-249999J0D01*
G01*
X110459999Y-103530000D01*
G75*
G02*
X110210000Y-103280001I0J249999D01*
G01*
G37*
D28*
X52300000Y-39450000D03*
X54800000Y-39450000D03*
X57275000Y-44475000D03*
X57275000Y-41975000D03*
G36*
G01*
X112260000Y-99820001D02*
X112260000Y-98919999D01*
G75*
G02*
X112509999Y-98670000I249999J0D01*
G01*
X113160001Y-98670000D01*
G75*
G02*
X113410000Y-98919999I0J-249999D01*
G01*
X113410000Y-99820001D01*
G75*
G02*
X113160001Y-100070000I-249999J0D01*
G01*
X112509999Y-100070000D01*
G75*
G02*
X112260000Y-99820001I0J249999D01*
G01*
G37*
G36*
G01*
X110210000Y-99820001D02*
X110210000Y-98919999D01*
G75*
G02*
X110459999Y-98670000I249999J0D01*
G01*
X111110001Y-98670000D01*
G75*
G02*
X111360000Y-98919999I0J-249999D01*
G01*
X111360000Y-99820001D01*
G75*
G02*
X111110001Y-100070000I-249999J0D01*
G01*
X110459999Y-100070000D01*
G75*
G02*
X110210000Y-99820001I0J249999D01*
G01*
G37*
G36*
G01*
X42355000Y-73250000D02*
X42045000Y-73250000D01*
G75*
G02*
X41890000Y-73095000I0J155000D01*
G01*
X41890000Y-72670000D01*
G75*
G02*
X42045000Y-72515000I155000J0D01*
G01*
X42355000Y-72515000D01*
G75*
G02*
X42510000Y-72670000I0J-155000D01*
G01*
X42510000Y-73095000D01*
G75*
G02*
X42355000Y-73250000I-155000J0D01*
G01*
G37*
G36*
G01*
X42355000Y-74385000D02*
X42045000Y-74385000D01*
G75*
G02*
X41890000Y-74230000I0J155000D01*
G01*
X41890000Y-73805000D01*
G75*
G02*
X42045000Y-73650000I155000J0D01*
G01*
X42355000Y-73650000D01*
G75*
G02*
X42510000Y-73805000I0J-155000D01*
G01*
X42510000Y-74230000D01*
G75*
G02*
X42355000Y-74385000I-155000J0D01*
G01*
G37*
G36*
G01*
X56945000Y-73100000D02*
X57255000Y-73100000D01*
G75*
G02*
X57410000Y-73255000I0J-155000D01*
G01*
X57410000Y-73680000D01*
G75*
G02*
X57255000Y-73835000I-155000J0D01*
G01*
X56945000Y-73835000D01*
G75*
G02*
X56790000Y-73680000I0J155000D01*
G01*
X56790000Y-73255000D01*
G75*
G02*
X56945000Y-73100000I155000J0D01*
G01*
G37*
G36*
G01*
X56945000Y-71965000D02*
X57255000Y-71965000D01*
G75*
G02*
X57410000Y-72120000I0J-155000D01*
G01*
X57410000Y-72545000D01*
G75*
G02*
X57255000Y-72700000I-155000J0D01*
G01*
X56945000Y-72700000D01*
G75*
G02*
X56790000Y-72545000I0J155000D01*
G01*
X56790000Y-72120000D01*
G75*
G02*
X56945000Y-71965000I155000J0D01*
G01*
G37*
G36*
G01*
X46300000Y-62205000D02*
X46300000Y-61895000D01*
G75*
G02*
X46455000Y-61740000I155000J0D01*
G01*
X46880000Y-61740000D01*
G75*
G02*
X47035000Y-61895000I0J-155000D01*
G01*
X47035000Y-62205000D01*
G75*
G02*
X46880000Y-62360000I-155000J0D01*
G01*
X46455000Y-62360000D01*
G75*
G02*
X46300000Y-62205000I0J155000D01*
G01*
G37*
G36*
G01*
X45165000Y-62205000D02*
X45165000Y-61895000D01*
G75*
G02*
X45320000Y-61740000I155000J0D01*
G01*
X45745000Y-61740000D01*
G75*
G02*
X45900000Y-61895000I0J-155000D01*
G01*
X45900000Y-62205000D01*
G75*
G02*
X45745000Y-62360000I-155000J0D01*
G01*
X45320000Y-62360000D01*
G75*
G02*
X45165000Y-62205000I0J155000D01*
G01*
G37*
G36*
G01*
X56845000Y-65500000D02*
X57155000Y-65500000D01*
G75*
G02*
X57310000Y-65655000I0J-155000D01*
G01*
X57310000Y-66080000D01*
G75*
G02*
X57155000Y-66235000I-155000J0D01*
G01*
X56845000Y-66235000D01*
G75*
G02*
X56690000Y-66080000I0J155000D01*
G01*
X56690000Y-65655000D01*
G75*
G02*
X56845000Y-65500000I155000J0D01*
G01*
G37*
G36*
G01*
X56845000Y-64365000D02*
X57155000Y-64365000D01*
G75*
G02*
X57310000Y-64520000I0J-155000D01*
G01*
X57310000Y-64945000D01*
G75*
G02*
X57155000Y-65100000I-155000J0D01*
G01*
X56845000Y-65100000D01*
G75*
G02*
X56690000Y-64945000I0J155000D01*
G01*
X56690000Y-64520000D01*
G75*
G02*
X56845000Y-64365000I155000J0D01*
G01*
G37*
G36*
G01*
X41075000Y-72950000D02*
X40125000Y-72950000D01*
G75*
G02*
X39875000Y-72700000I0J250000D01*
G01*
X39875000Y-72025000D01*
G75*
G02*
X40125000Y-71775000I250000J0D01*
G01*
X41075000Y-71775000D01*
G75*
G02*
X41325000Y-72025000I0J-250000D01*
G01*
X41325000Y-72700000D01*
G75*
G02*
X41075000Y-72950000I-250000J0D01*
G01*
G37*
G36*
G01*
X41075000Y-75025000D02*
X40125000Y-75025000D01*
G75*
G02*
X39875000Y-74775000I0J250000D01*
G01*
X39875000Y-74100000D01*
G75*
G02*
X40125000Y-73850000I250000J0D01*
G01*
X41075000Y-73850000D01*
G75*
G02*
X41325000Y-74100000I0J-250000D01*
G01*
X41325000Y-74775000D01*
G75*
G02*
X41075000Y-75025000I-250000J0D01*
G01*
G37*
G36*
G01*
X40615000Y-76382500D02*
X40615000Y-76857500D01*
G75*
G02*
X40377500Y-77095000I-237500J0D01*
G01*
X39777500Y-77095000D01*
G75*
G02*
X39540000Y-76857500I0J237500D01*
G01*
X39540000Y-76382500D01*
G75*
G02*
X39777500Y-76145000I237500J0D01*
G01*
X40377500Y-76145000D01*
G75*
G02*
X40615000Y-76382500I0J-237500D01*
G01*
G37*
G36*
G01*
X42340000Y-76382500D02*
X42340000Y-76857500D01*
G75*
G02*
X42102500Y-77095000I-237500J0D01*
G01*
X41502500Y-77095000D01*
G75*
G02*
X41265000Y-76857500I0J237500D01*
G01*
X41265000Y-76382500D01*
G75*
G02*
X41502500Y-76145000I237500J0D01*
G01*
X42102500Y-76145000D01*
G75*
G02*
X42340000Y-76382500I0J-237500D01*
G01*
G37*
G36*
G01*
X59500000Y-48962500D02*
X59500000Y-48487500D01*
G75*
G02*
X59737500Y-48250000I237500J0D01*
G01*
X60337500Y-48250000D01*
G75*
G02*
X60575000Y-48487500I0J-237500D01*
G01*
X60575000Y-48962500D01*
G75*
G02*
X60337500Y-49200000I-237500J0D01*
G01*
X59737500Y-49200000D01*
G75*
G02*
X59500000Y-48962500I0J237500D01*
G01*
G37*
G36*
G01*
X57775000Y-48962500D02*
X57775000Y-48487500D01*
G75*
G02*
X58012500Y-48250000I237500J0D01*
G01*
X58612500Y-48250000D01*
G75*
G02*
X58850000Y-48487500I0J-237500D01*
G01*
X58850000Y-48962500D01*
G75*
G02*
X58612500Y-49200000I-237500J0D01*
G01*
X58012500Y-49200000D01*
G75*
G02*
X57775000Y-48962500I0J237500D01*
G01*
G37*
G36*
G01*
X59425000Y-47200000D02*
X59425000Y-46250000D01*
G75*
G02*
X59675000Y-46000000I250000J0D01*
G01*
X60350000Y-46000000D01*
G75*
G02*
X60600000Y-46250000I0J-250000D01*
G01*
X60600000Y-47200000D01*
G75*
G02*
X60350000Y-47450000I-250000J0D01*
G01*
X59675000Y-47450000D01*
G75*
G02*
X59425000Y-47200000I0J250000D01*
G01*
G37*
G36*
G01*
X57350000Y-47200000D02*
X57350000Y-46250000D01*
G75*
G02*
X57600000Y-46000000I250000J0D01*
G01*
X58275000Y-46000000D01*
G75*
G02*
X58525000Y-46250000I0J-250000D01*
G01*
X58525000Y-47200000D01*
G75*
G02*
X58275000Y-47450000I-250000J0D01*
G01*
X57600000Y-47450000D01*
G75*
G02*
X57350000Y-47200000I0J250000D01*
G01*
G37*
G36*
G01*
X66600000Y-83925000D02*
X66600000Y-84875000D01*
G75*
G02*
X66350000Y-85125000I-250000J0D01*
G01*
X65675000Y-85125000D01*
G75*
G02*
X65425000Y-84875000I0J250000D01*
G01*
X65425000Y-83925000D01*
G75*
G02*
X65675000Y-83675000I250000J0D01*
G01*
X66350000Y-83675000D01*
G75*
G02*
X66600000Y-83925000I0J-250000D01*
G01*
G37*
G36*
G01*
X68675000Y-83925000D02*
X68675000Y-84875000D01*
G75*
G02*
X68425000Y-85125000I-250000J0D01*
G01*
X67750000Y-85125000D01*
G75*
G02*
X67500000Y-84875000I0J250000D01*
G01*
X67500000Y-83925000D01*
G75*
G02*
X67750000Y-83675000I250000J0D01*
G01*
X68425000Y-83675000D01*
G75*
G02*
X68675000Y-83925000I0J-250000D01*
G01*
G37*
G36*
G01*
X114300000Y-83775000D02*
X114300000Y-82825000D01*
G75*
G02*
X114550000Y-82575000I250000J0D01*
G01*
X115225000Y-82575000D01*
G75*
G02*
X115475000Y-82825000I0J-250000D01*
G01*
X115475000Y-83775000D01*
G75*
G02*
X115225000Y-84025000I-250000J0D01*
G01*
X114550000Y-84025000D01*
G75*
G02*
X114300000Y-83775000I0J250000D01*
G01*
G37*
G36*
G01*
X112225000Y-83775000D02*
X112225000Y-82825000D01*
G75*
G02*
X112475000Y-82575000I250000J0D01*
G01*
X113150000Y-82575000D01*
G75*
G02*
X113400000Y-82825000I0J-250000D01*
G01*
X113400000Y-83775000D01*
G75*
G02*
X113150000Y-84025000I-250000J0D01*
G01*
X112475000Y-84025000D01*
G75*
G02*
X112225000Y-83775000I0J250000D01*
G01*
G37*
G36*
G01*
X58450000Y-84225000D02*
X58450000Y-85175000D01*
G75*
G02*
X58200000Y-85425000I-250000J0D01*
G01*
X57525000Y-85425000D01*
G75*
G02*
X57275000Y-85175000I0J250000D01*
G01*
X57275000Y-84225000D01*
G75*
G02*
X57525000Y-83975000I250000J0D01*
G01*
X58200000Y-83975000D01*
G75*
G02*
X58450000Y-84225000I0J-250000D01*
G01*
G37*
G36*
G01*
X60525000Y-84225000D02*
X60525000Y-85175000D01*
G75*
G02*
X60275000Y-85425000I-250000J0D01*
G01*
X59600000Y-85425000D01*
G75*
G02*
X59350000Y-85175000I0J250000D01*
G01*
X59350000Y-84225000D01*
G75*
G02*
X59600000Y-83975000I250000J0D01*
G01*
X60275000Y-83975000D01*
G75*
G02*
X60525000Y-84225000I0J-250000D01*
G01*
G37*
G36*
G01*
X101925000Y-78700000D02*
X100975000Y-78700000D01*
G75*
G02*
X100725000Y-78450000I0J250000D01*
G01*
X100725000Y-77775000D01*
G75*
G02*
X100975000Y-77525000I250000J0D01*
G01*
X101925000Y-77525000D01*
G75*
G02*
X102175000Y-77775000I0J-250000D01*
G01*
X102175000Y-78450000D01*
G75*
G02*
X101925000Y-78700000I-250000J0D01*
G01*
G37*
G36*
G01*
X101925000Y-80775000D02*
X100975000Y-80775000D01*
G75*
G02*
X100725000Y-80525000I0J250000D01*
G01*
X100725000Y-79850000D01*
G75*
G02*
X100975000Y-79600000I250000J0D01*
G01*
X101925000Y-79600000D01*
G75*
G02*
X102175000Y-79850000I0J-250000D01*
G01*
X102175000Y-80525000D01*
G75*
G02*
X101925000Y-80775000I-250000J0D01*
G01*
G37*
G36*
G01*
X103625000Y-118862500D02*
X103625000Y-119337500D01*
G75*
G02*
X103387500Y-119575000I-237500J0D01*
G01*
X102787500Y-119575000D01*
G75*
G02*
X102550000Y-119337500I0J237500D01*
G01*
X102550000Y-118862500D01*
G75*
G02*
X102787500Y-118625000I237500J0D01*
G01*
X103387500Y-118625000D01*
G75*
G02*
X103625000Y-118862500I0J-237500D01*
G01*
G37*
G36*
G01*
X105350000Y-118862500D02*
X105350000Y-119337500D01*
G75*
G02*
X105112500Y-119575000I-237500J0D01*
G01*
X104512500Y-119575000D01*
G75*
G02*
X104275000Y-119337500I0J237500D01*
G01*
X104275000Y-118862500D01*
G75*
G02*
X104512500Y-118625000I237500J0D01*
G01*
X105112500Y-118625000D01*
G75*
G02*
X105350000Y-118862500I0J-237500D01*
G01*
G37*
G36*
G01*
X55187500Y-104975000D02*
X54712500Y-104975000D01*
G75*
G02*
X54475000Y-104737500I0J237500D01*
G01*
X54475000Y-104137500D01*
G75*
G02*
X54712500Y-103900000I237500J0D01*
G01*
X55187500Y-103900000D01*
G75*
G02*
X55425000Y-104137500I0J-237500D01*
G01*
X55425000Y-104737500D01*
G75*
G02*
X55187500Y-104975000I-237500J0D01*
G01*
G37*
G36*
G01*
X55187500Y-106700000D02*
X54712500Y-106700000D01*
G75*
G02*
X54475000Y-106462500I0J237500D01*
G01*
X54475000Y-105862500D01*
G75*
G02*
X54712500Y-105625000I237500J0D01*
G01*
X55187500Y-105625000D01*
G75*
G02*
X55425000Y-105862500I0J-237500D01*
G01*
X55425000Y-106462500D01*
G75*
G02*
X55187500Y-106700000I-237500J0D01*
G01*
G37*
G36*
G01*
X54612500Y-118425000D02*
X55087500Y-118425000D01*
G75*
G02*
X55325000Y-118662500I0J-237500D01*
G01*
X55325000Y-119262500D01*
G75*
G02*
X55087500Y-119500000I-237500J0D01*
G01*
X54612500Y-119500000D01*
G75*
G02*
X54375000Y-119262500I0J237500D01*
G01*
X54375000Y-118662500D01*
G75*
G02*
X54612500Y-118425000I237500J0D01*
G01*
G37*
G36*
G01*
X54612500Y-116700000D02*
X55087500Y-116700000D01*
G75*
G02*
X55325000Y-116937500I0J-237500D01*
G01*
X55325000Y-117537500D01*
G75*
G02*
X55087500Y-117775000I-237500J0D01*
G01*
X54612500Y-117775000D01*
G75*
G02*
X54375000Y-117537500I0J237500D01*
G01*
X54375000Y-116937500D01*
G75*
G02*
X54612500Y-116700000I237500J0D01*
G01*
G37*
G36*
G01*
X42225000Y-116862500D02*
X42225000Y-117337500D01*
G75*
G02*
X41987500Y-117575000I-237500J0D01*
G01*
X41387500Y-117575000D01*
G75*
G02*
X41150000Y-117337500I0J237500D01*
G01*
X41150000Y-116862500D01*
G75*
G02*
X41387500Y-116625000I237500J0D01*
G01*
X41987500Y-116625000D01*
G75*
G02*
X42225000Y-116862500I0J-237500D01*
G01*
G37*
G36*
G01*
X43950000Y-116862500D02*
X43950000Y-117337500D01*
G75*
G02*
X43712500Y-117575000I-237500J0D01*
G01*
X43112500Y-117575000D01*
G75*
G02*
X42875000Y-117337500I0J237500D01*
G01*
X42875000Y-116862500D01*
G75*
G02*
X43112500Y-116625000I237500J0D01*
G01*
X43712500Y-116625000D01*
G75*
G02*
X43950000Y-116862500I0J-237500D01*
G01*
G37*
G36*
G01*
X113925000Y-119612500D02*
X113925000Y-120087500D01*
G75*
G02*
X113687500Y-120325000I-237500J0D01*
G01*
X113087500Y-120325000D01*
G75*
G02*
X112850000Y-120087500I0J237500D01*
G01*
X112850000Y-119612500D01*
G75*
G02*
X113087500Y-119375000I237500J0D01*
G01*
X113687500Y-119375000D01*
G75*
G02*
X113925000Y-119612500I0J-237500D01*
G01*
G37*
G36*
G01*
X115650000Y-119612500D02*
X115650000Y-120087500D01*
G75*
G02*
X115412500Y-120325000I-237500J0D01*
G01*
X114812500Y-120325000D01*
G75*
G02*
X114575000Y-120087500I0J237500D01*
G01*
X114575000Y-119612500D01*
G75*
G02*
X114812500Y-119375000I237500J0D01*
G01*
X115412500Y-119375000D01*
G75*
G02*
X115650000Y-119612500I0J-237500D01*
G01*
G37*
G36*
G01*
X43187500Y-104975000D02*
X42712500Y-104975000D01*
G75*
G02*
X42475000Y-104737500I0J237500D01*
G01*
X42475000Y-104137500D01*
G75*
G02*
X42712500Y-103900000I237500J0D01*
G01*
X43187500Y-103900000D01*
G75*
G02*
X43425000Y-104137500I0J-237500D01*
G01*
X43425000Y-104737500D01*
G75*
G02*
X43187500Y-104975000I-237500J0D01*
G01*
G37*
G36*
G01*
X43187500Y-106700000D02*
X42712500Y-106700000D01*
G75*
G02*
X42475000Y-106462500I0J237500D01*
G01*
X42475000Y-105862500D01*
G75*
G02*
X42712500Y-105625000I237500J0D01*
G01*
X43187500Y-105625000D01*
G75*
G02*
X43425000Y-105862500I0J-237500D01*
G01*
X43425000Y-106462500D01*
G75*
G02*
X43187500Y-106700000I-237500J0D01*
G01*
G37*
G36*
G01*
X71299000Y-108432500D02*
X71299000Y-108907500D01*
G75*
G02*
X71061500Y-109145000I-237500J0D01*
G01*
X70461500Y-109145000D01*
G75*
G02*
X70224000Y-108907500I0J237500D01*
G01*
X70224000Y-108432500D01*
G75*
G02*
X70461500Y-108195000I237500J0D01*
G01*
X71061500Y-108195000D01*
G75*
G02*
X71299000Y-108432500I0J-237500D01*
G01*
G37*
G36*
G01*
X73024000Y-108432500D02*
X73024000Y-108907500D01*
G75*
G02*
X72786500Y-109145000I-237500J0D01*
G01*
X72186500Y-109145000D01*
G75*
G02*
X71949000Y-108907500I0J237500D01*
G01*
X71949000Y-108432500D01*
G75*
G02*
X72186500Y-108195000I237500J0D01*
G01*
X72786500Y-108195000D01*
G75*
G02*
X73024000Y-108432500I0J-237500D01*
G01*
G37*
G36*
G01*
X85739000Y-106659500D02*
X85739000Y-106184500D01*
G75*
G02*
X85976500Y-105947000I237500J0D01*
G01*
X86576500Y-105947000D01*
G75*
G02*
X86814000Y-106184500I0J-237500D01*
G01*
X86814000Y-106659500D01*
G75*
G02*
X86576500Y-106897000I-237500J0D01*
G01*
X85976500Y-106897000D01*
G75*
G02*
X85739000Y-106659500I0J237500D01*
G01*
G37*
G36*
G01*
X84014000Y-106659500D02*
X84014000Y-106184500D01*
G75*
G02*
X84251500Y-105947000I237500J0D01*
G01*
X84851500Y-105947000D01*
G75*
G02*
X85089000Y-106184500I0J-237500D01*
G01*
X85089000Y-106659500D01*
G75*
G02*
X84851500Y-106897000I-237500J0D01*
G01*
X84251500Y-106897000D01*
G75*
G02*
X84014000Y-106659500I0J237500D01*
G01*
G37*
G36*
G01*
X68875000Y-57962500D02*
X68875000Y-58437500D01*
G75*
G02*
X68637500Y-58675000I-237500J0D01*
G01*
X68037500Y-58675000D01*
G75*
G02*
X67800000Y-58437500I0J237500D01*
G01*
X67800000Y-57962500D01*
G75*
G02*
X68037500Y-57725000I237500J0D01*
G01*
X68637500Y-57725000D01*
G75*
G02*
X68875000Y-57962500I0J-237500D01*
G01*
G37*
G36*
G01*
X70600000Y-57962500D02*
X70600000Y-58437500D01*
G75*
G02*
X70362500Y-58675000I-237500J0D01*
G01*
X69762500Y-58675000D01*
G75*
G02*
X69525000Y-58437500I0J237500D01*
G01*
X69525000Y-57962500D01*
G75*
G02*
X69762500Y-57725000I237500J0D01*
G01*
X70362500Y-57725000D01*
G75*
G02*
X70600000Y-57962500I0J-237500D01*
G01*
G37*
G36*
G01*
X69975000Y-95162500D02*
X69975000Y-95637500D01*
G75*
G02*
X69737500Y-95875000I-237500J0D01*
G01*
X69137500Y-95875000D01*
G75*
G02*
X68900000Y-95637500I0J237500D01*
G01*
X68900000Y-95162500D01*
G75*
G02*
X69137500Y-94925000I237500J0D01*
G01*
X69737500Y-94925000D01*
G75*
G02*
X69975000Y-95162500I0J-237500D01*
G01*
G37*
G36*
G01*
X71700000Y-95162500D02*
X71700000Y-95637500D01*
G75*
G02*
X71462500Y-95875000I-237500J0D01*
G01*
X70862500Y-95875000D01*
G75*
G02*
X70625000Y-95637500I0J237500D01*
G01*
X70625000Y-95162500D01*
G75*
G02*
X70862500Y-94925000I237500J0D01*
G01*
X71462500Y-94925000D01*
G75*
G02*
X71700000Y-95162500I0J-237500D01*
G01*
G37*
G36*
G01*
X59025000Y-63800000D02*
X58075000Y-63800000D01*
G75*
G02*
X57825000Y-63550000I0J250000D01*
G01*
X57825000Y-62875000D01*
G75*
G02*
X58075000Y-62625000I250000J0D01*
G01*
X59025000Y-62625000D01*
G75*
G02*
X59275000Y-62875000I0J-250000D01*
G01*
X59275000Y-63550000D01*
G75*
G02*
X59025000Y-63800000I-250000J0D01*
G01*
G37*
G36*
G01*
X59025000Y-65875000D02*
X58075000Y-65875000D01*
G75*
G02*
X57825000Y-65625000I0J250000D01*
G01*
X57825000Y-64950000D01*
G75*
G02*
X58075000Y-64700000I250000J0D01*
G01*
X59025000Y-64700000D01*
G75*
G02*
X59275000Y-64950000I0J-250000D01*
G01*
X59275000Y-65625000D01*
G75*
G02*
X59025000Y-65875000I-250000J0D01*
G01*
G37*
G36*
G01*
X45475000Y-79112500D02*
X45475000Y-79587500D01*
G75*
G02*
X45237500Y-79825000I-237500J0D01*
G01*
X44637500Y-79825000D01*
G75*
G02*
X44400000Y-79587500I0J237500D01*
G01*
X44400000Y-79112500D01*
G75*
G02*
X44637500Y-78875000I237500J0D01*
G01*
X45237500Y-78875000D01*
G75*
G02*
X45475000Y-79112500I0J-237500D01*
G01*
G37*
G36*
G01*
X47200000Y-79112500D02*
X47200000Y-79587500D01*
G75*
G02*
X46962500Y-79825000I-237500J0D01*
G01*
X46362500Y-79825000D01*
G75*
G02*
X46125000Y-79587500I0J237500D01*
G01*
X46125000Y-79112500D01*
G75*
G02*
X46362500Y-78875000I237500J0D01*
G01*
X46962500Y-78875000D01*
G75*
G02*
X47200000Y-79112500I0J-237500D01*
G01*
G37*
G36*
G01*
X42075000Y-79112500D02*
X42075000Y-79587500D01*
G75*
G02*
X41837500Y-79825000I-237500J0D01*
G01*
X41237500Y-79825000D01*
G75*
G02*
X41000000Y-79587500I0J237500D01*
G01*
X41000000Y-79112500D01*
G75*
G02*
X41237500Y-78875000I237500J0D01*
G01*
X41837500Y-78875000D01*
G75*
G02*
X42075000Y-79112500I0J-237500D01*
G01*
G37*
G36*
G01*
X43800000Y-79112500D02*
X43800000Y-79587500D01*
G75*
G02*
X43562500Y-79825000I-237500J0D01*
G01*
X42962500Y-79825000D01*
G75*
G02*
X42725000Y-79587500I0J237500D01*
G01*
X42725000Y-79112500D01*
G75*
G02*
X42962500Y-78875000I237500J0D01*
G01*
X43562500Y-78875000D01*
G75*
G02*
X43800000Y-79112500I0J-237500D01*
G01*
G37*
G36*
G01*
X88975000Y-95687500D02*
X88975000Y-95212500D01*
G75*
G02*
X89212500Y-94975000I237500J0D01*
G01*
X89812500Y-94975000D01*
G75*
G02*
X90050000Y-95212500I0J-237500D01*
G01*
X90050000Y-95687500D01*
G75*
G02*
X89812500Y-95925000I-237500J0D01*
G01*
X89212500Y-95925000D01*
G75*
G02*
X88975000Y-95687500I0J237500D01*
G01*
G37*
G36*
G01*
X87250000Y-95687500D02*
X87250000Y-95212500D01*
G75*
G02*
X87487500Y-94975000I237500J0D01*
G01*
X88087500Y-94975000D01*
G75*
G02*
X88325000Y-95212500I0J-237500D01*
G01*
X88325000Y-95687500D01*
G75*
G02*
X88087500Y-95925000I-237500J0D01*
G01*
X87487500Y-95925000D01*
G75*
G02*
X87250000Y-95687500I0J237500D01*
G01*
G37*
G36*
G01*
X53325000Y-77587500D02*
X53325000Y-77112500D01*
G75*
G02*
X53562500Y-76875000I237500J0D01*
G01*
X54162500Y-76875000D01*
G75*
G02*
X54400000Y-77112500I0J-237500D01*
G01*
X54400000Y-77587500D01*
G75*
G02*
X54162500Y-77825000I-237500J0D01*
G01*
X53562500Y-77825000D01*
G75*
G02*
X53325000Y-77587500I0J237500D01*
G01*
G37*
G36*
G01*
X51600000Y-77587500D02*
X51600000Y-77112500D01*
G75*
G02*
X51837500Y-76875000I237500J0D01*
G01*
X52437500Y-76875000D01*
G75*
G02*
X52675000Y-77112500I0J-237500D01*
G01*
X52675000Y-77587500D01*
G75*
G02*
X52437500Y-77825000I-237500J0D01*
G01*
X51837500Y-77825000D01*
G75*
G02*
X51600000Y-77587500I0J237500D01*
G01*
G37*
G36*
G01*
X49275000Y-77112500D02*
X49275000Y-77587500D01*
G75*
G02*
X49037500Y-77825000I-237500J0D01*
G01*
X48437500Y-77825000D01*
G75*
G02*
X48200000Y-77587500I0J237500D01*
G01*
X48200000Y-77112500D01*
G75*
G02*
X48437500Y-76875000I237500J0D01*
G01*
X49037500Y-76875000D01*
G75*
G02*
X49275000Y-77112500I0J-237500D01*
G01*
G37*
G36*
G01*
X51000000Y-77112500D02*
X51000000Y-77587500D01*
G75*
G02*
X50762500Y-77825000I-237500J0D01*
G01*
X50162500Y-77825000D01*
G75*
G02*
X49925000Y-77587500I0J237500D01*
G01*
X49925000Y-77112500D01*
G75*
G02*
X50162500Y-76875000I237500J0D01*
G01*
X50762500Y-76875000D01*
G75*
G02*
X51000000Y-77112500I0J-237500D01*
G01*
G37*
M02*
