M48
; DRILL file {KiCad (5.1.12)-1} date 12/30/21 17:29:17
; FORMAT={-:-/ absolute / metric / decimal}
; #@! TF.CreationDate,2021-12-30T17:29:17+01:00
; #@! TF.GenerationSoftware,Kicad,Pcbnew,(5.1.12)-1
FMAT,2
METRIC
T1C0.200
T2C0.300
T3C0.500
T4C0.600
T5C0.800
T6C0.650
T7C2.200
%
G90
G05
T1
X31.7Y-68.6
X37.1Y-80.75
X37.65Y-81.6
X38.2Y-71.85
X39.75Y-77.65
X40.55Y-79.1
X40.55Y-80.3
X40.6Y-70.75
X40.95Y-77.45
X41.4Y-78.4
X41.65Y-50.6
X42.15Y-80.3
X42.35Y-71.7
X42.85Y-78.4
X43.25Y-76.55
X43.25Y-77.35
X43.6Y-80.3
X44.979Y-75.879
X45.0Y-80.3
X45.2Y-73.8
X45.95Y-73.65
X46.65Y-57.75
X46.7Y-57.0
X46.7Y-80.3
X47.19Y-73.82
X47.6Y-72.85
X47.7Y-77.7
X47.7Y-78.65
X47.7Y-79.75
X47.7Y-81.1
X47.7Y-82.4
X47.9Y-76.75
X48.13Y-73.83
X48.3Y-72.85
X48.55Y-56.95
X48.55Y-57.75
X48.65Y-65.1
X48.75Y-83.0
X49.25Y-105.65
X49.35Y-118.15
X49.75Y-70.05
X50.25Y-67.829
X50.439Y-57.539
X50.55Y-69.475
X50.7Y-66.6
X50.889Y-67.279
X51.2Y-83.0
X51.325Y-68.725
X51.721Y-73.471
X51.8Y-54.15
X51.85Y-56.95
X52.025Y-68.05
X52.685Y-73.285
X53.3Y-83.0
X53.75Y-78.6
X53.75Y-80.15
X53.75Y-81.5
X53.85Y-76.3
X53.946Y-72.609
X54.05Y-65.85
X54.15Y-71.45
X54.45Y-74.05
X54.85Y-76.35
X54.85Y-77.9
X56.1Y-75.7
X57.0Y-63.9
X57.9Y-72.2
X57.95Y-73.15
X59.911Y-66.611
X60.3Y-70.7
X60.65Y-65.85
X62.0Y-60.85
X62.6Y-60.3
X64.6Y-70.025
X65.399Y-69.275
X65.8Y-68.6
X66.4Y-68.0
X67.476Y-66.601
X68.151Y-65.926
X72.1Y-56.4
X72.85Y-55.85
X73.15Y-69.25
X75.35Y-58.95
X75.35Y-73.25
X75.4Y-57.0
X75.4Y-63.8
X75.45Y-72.05
X75.55Y-67.0
X75.711Y-64.889
X75.994Y-63.417
X76.25Y-68.35
X76.41Y-71.3
X77.005Y-70.699
X77.096Y-62.076
X77.1Y-60.43
X77.1Y-58.85
X77.1Y-59.65
X77.1Y-61.26
X77.1Y-62.858
X77.1Y-63.8
X77.214Y-68.964
X78.65Y-59.944
X78.65Y-60.706
X78.65Y-61.468
X78.65Y-62.23
X78.65Y-62.992
X78.65Y-63.754
X78.65Y-64.516
X78.65Y-65.278
X78.65Y-66.04
X78.668Y-59.132
X82.6Y-47.0
X85.189Y-66.789
X85.4Y-68.0
X85.4Y-69.2
X85.6Y-65.6
X85.8Y-70.4
X86.4Y-71.6
X87.15Y-51.9
T2
X41.8Y-70.2
T3
X33.274Y-44.196
X33.274Y-46.99
X33.528Y-53.848
X33.528Y-58.674
X33.528Y-63.754
X34.544Y-114.554
X35.25Y-49.45
X35.35Y-41.7
X36.576Y-117.856
X37.084Y-102.616
X38.354Y-35.306
X39.1Y-74.4
X39.4Y-48.0
X39.5Y-43.2
X39.75Y-109.35
X40.0Y-102.85
X40.35Y-119.55
X40.386Y-63.754
X40.64Y-53.848
X40.64Y-59.182
X41.402Y-113.538
X41.91Y-39.37
X42.926Y-84.328
X42.926Y-89.154
X43.434Y-33.782
X44.45Y-62.0
X44.55Y-105.5
X45.65Y-37.35
X46.0Y-61.0
X47.752Y-110.49
X48.768Y-86.36
X49.53Y-124.46
X50.25Y-60.5
X50.8Y-51.054
X51.054Y-113.284
X54.95Y-102.75
X55.118Y-124.714
X55.8Y-45.8
X55.85Y-48.9
X56.3Y-86.0
X56.896Y-79.756
X57.4Y-120.5
X57.6Y-102.8
X57.8Y-109.25
X60.25Y-62.75
X60.6Y-91.05
X60.706Y-76.2
X60.706Y-124.714
X60.96Y-98.552
X61.976Y-120.396
X62.23Y-49.53
X62.738Y-109.982
X62.738Y-113.792
X63.2Y-89.55
X63.246Y-46.228
X64.008Y-81.28
X64.008Y-101.6
X64.262Y-72.644
X65.532Y-97.028
X65.786Y-47.244
X66.35Y-91.45
X66.8Y-58.2
X67.056Y-103.378
X67.056Y-110.998
X67.056Y-114.808
X67.25Y-127.65
X67.564Y-121.666
X68.072Y-76.962
X68.15Y-91.45
X68.75Y-108.41
X69.3Y-57.2
X70.15Y-86.25
X70.15Y-90.25
X70.35Y-88.25
X70.612Y-81.28
X71.8Y-99.95
X72.1Y-58.25
X72.644Y-42.418
X72.65Y-95.4
X72.85Y-52.55
X72.898Y-118.872
X73.152Y-123.19
X73.25Y-76.7
X73.406Y-84.836
X73.75Y-80.2
X74.168Y-119.888
X74.168Y-121.92
X74.5Y-95.4
X75.6Y-48.2
X75.85Y-100.05
X76.708Y-45.466
X78.232Y-124.968
X78.97Y-108.0
X79.74Y-112.06
X80.35Y-115.89
X80.772Y-41.91
X82.042Y-89.662
X82.296Y-85.598
X84.3Y-95.45
X84.582Y-117.602
X85.05Y-98.5
X85.09Y-78.232
X85.344Y-44.45
X85.852Y-125.222
X87.814Y-108.472
X88.138Y-56.388
X88.138Y-91.44
X88.646Y-67.056
X88.646Y-86.36
X89.408Y-80.264
X90.424Y-42.164
X90.424Y-72.136
X90.932Y-117.602
X93.472Y-55.88
X93.98Y-89.408
X94.1Y-111.91
X94.234Y-96.774
X94.234Y-117.348
X94.32Y-106.45
X94.488Y-45.466
X94.488Y-50.038
X94.488Y-102.616
X94.996Y-80.01
X95.25Y-74.676
X100.584Y-45.974
X100.584Y-120.904
X101.08Y-106.64
X101.092Y-50.292
X101.092Y-73.406
X101.55Y-117.2
X101.854Y-112.268
X102.87Y-75.692
X103.45Y-88.6
X104.95Y-87.05
X105.15Y-84.4
X106.68Y-51.054
X108.4Y-86.0
X108.55Y-80.05
X108.712Y-123.952
X109.728Y-68.834
X109.982Y-57.15
X110.15Y-80.05
X110.15Y-86.35
X110.236Y-63.5
X111.2Y-112.1
X111.85Y-121.85
X112.05Y-81.05
X112.05Y-85.75
X112.35Y-95.0
X112.522Y-114.554
X112.75Y-106.4
X112.776Y-76.2
X114.554Y-72.39
X114.808Y-79.248
X118.872Y-112.522
X118.872Y-116.586
X121.412Y-104.14
X121.666Y-99.314
T5
X70.37Y-120.76
X72.37Y-120.76
X114.3Y-48.0
X114.3Y-50.0
T6
X37.005Y-42.71
X37.005Y-48.49
T7
X33.0Y-33.0
X33.0Y-127.0
X121.87Y-32.87
X122.0Y-127.0
T4
X33.625Y-41.28G85X33.025Y-41.28
G05
X33.625Y-49.92G85X33.025Y-49.92
G05
X38.055Y-41.28G85X36.955Y-41.28
G05
X38.055Y-49.92G85X36.955Y-49.92
G05
T0
M30
