G04 #@! TF.GenerationSoftware,KiCad,Pcbnew,(5.1.12)-1*
G04 #@! TF.CreationDate,2021-12-30T17:29:10+01:00*
G04 #@! TF.ProjectId,GameGirl,47616d65-4769-4726-9c2e-6b696361645f,rev?*
G04 #@! TF.SameCoordinates,Original*
G04 #@! TF.FileFunction,Legend,Bot*
G04 #@! TF.FilePolarity,Positive*
%FSLAX46Y46*%
G04 Gerber Fmt 4.6, Leading zero omitted, Abs format (unit mm)*
G04 Created by KiCad (PCBNEW (5.1.12)-1) date 2021-12-30 17:29:10*
%MOMM*%
%LPD*%
G01*
G04 APERTURE LIST*
%ADD10C,0.400000*%
%ADD11C,0.300000*%
%ADD12C,2.200000*%
%ADD13O,1.350000X1.350000*%
%ADD14R,1.350000X1.350000*%
%ADD15C,0.650000*%
%ADD16O,1.600000X1.000000*%
%ADD17O,2.100000X1.000000*%
G04 APERTURE END LIST*
D10*
X111800000Y-35600000D02*
X67600000Y-35600000D01*
X111800000Y-47400000D02*
X111800000Y-35600000D01*
X67600000Y-47400000D02*
X111800000Y-47400000D01*
X67600000Y-35600000D02*
X67600000Y-47400000D01*
D11*
X107219047Y-41254761D02*
X107219047Y-39254761D01*
X106457142Y-39254761D01*
X106266666Y-39350000D01*
X106171428Y-39445238D01*
X106076190Y-39635714D01*
X106076190Y-39921428D01*
X106171428Y-40111904D01*
X106266666Y-40207142D01*
X106457142Y-40302380D01*
X107219047Y-40302380D01*
X105219047Y-41254761D02*
X105219047Y-39921428D01*
X105219047Y-40302380D02*
X105123809Y-40111904D01*
X105028571Y-40016666D01*
X104838095Y-39921428D01*
X104647619Y-39921428D01*
X103695238Y-41254761D02*
X103885714Y-41159523D01*
X103980952Y-41064285D01*
X104076190Y-40873809D01*
X104076190Y-40302380D01*
X103980952Y-40111904D01*
X103885714Y-40016666D01*
X103695238Y-39921428D01*
X103409523Y-39921428D01*
X103219047Y-40016666D01*
X103123809Y-40111904D01*
X103028571Y-40302380D01*
X103028571Y-40873809D01*
X103123809Y-41064285D01*
X103219047Y-41159523D01*
X103409523Y-41254761D01*
X103695238Y-41254761D01*
X102171428Y-39921428D02*
X102171428Y-41635714D01*
X102266666Y-41826190D01*
X102457142Y-41921428D01*
X102552380Y-41921428D01*
X102171428Y-39254761D02*
X102266666Y-39350000D01*
X102171428Y-39445238D01*
X102076190Y-39350000D01*
X102171428Y-39254761D01*
X102171428Y-39445238D01*
X100457142Y-41159523D02*
X100647619Y-41254761D01*
X101028571Y-41254761D01*
X101219047Y-41159523D01*
X101314285Y-40969047D01*
X101314285Y-40207142D01*
X101219047Y-40016666D01*
X101028571Y-39921428D01*
X100647619Y-39921428D01*
X100457142Y-40016666D01*
X100361904Y-40207142D01*
X100361904Y-40397619D01*
X101314285Y-40588095D01*
X98647619Y-41159523D02*
X98838095Y-41254761D01*
X99219047Y-41254761D01*
X99409523Y-41159523D01*
X99504761Y-41064285D01*
X99600000Y-40873809D01*
X99600000Y-40302380D01*
X99504761Y-40111904D01*
X99409523Y-40016666D01*
X99219047Y-39921428D01*
X98838095Y-39921428D01*
X98647619Y-40016666D01*
X98076190Y-39921428D02*
X97314285Y-39921428D01*
X97790476Y-39254761D02*
X97790476Y-40969047D01*
X97695238Y-41159523D01*
X97504761Y-41254761D01*
X97314285Y-41254761D01*
X94838095Y-41254761D02*
X95028571Y-41159523D01*
X95123809Y-41064285D01*
X95219047Y-40873809D01*
X95219047Y-40302380D01*
X95123809Y-40111904D01*
X95028571Y-40016666D01*
X94838095Y-39921428D01*
X94552380Y-39921428D01*
X94361904Y-40016666D01*
X94266666Y-40111904D01*
X94171428Y-40302380D01*
X94171428Y-40873809D01*
X94266666Y-41064285D01*
X94361904Y-41159523D01*
X94552380Y-41254761D01*
X94838095Y-41254761D01*
X93600000Y-39921428D02*
X92838095Y-39921428D01*
X93314285Y-41254761D02*
X93314285Y-39540476D01*
X93219047Y-39350000D01*
X93028571Y-39254761D01*
X92838095Y-39254761D01*
X90647619Y-41254761D02*
X90647619Y-39254761D01*
X89980952Y-40683333D01*
X89314285Y-39254761D01*
X89314285Y-41254761D01*
X87504761Y-41254761D02*
X87504761Y-40207142D01*
X87600000Y-40016666D01*
X87790476Y-39921428D01*
X88171428Y-39921428D01*
X88361904Y-40016666D01*
X87504761Y-41159523D02*
X87695238Y-41254761D01*
X88171428Y-41254761D01*
X88361904Y-41159523D01*
X88457142Y-40969047D01*
X88457142Y-40778571D01*
X88361904Y-40588095D01*
X88171428Y-40492857D01*
X87695238Y-40492857D01*
X87504761Y-40397619D01*
X86647619Y-41159523D02*
X86457142Y-41254761D01*
X86076190Y-41254761D01*
X85885714Y-41159523D01*
X85790476Y-40969047D01*
X85790476Y-40873809D01*
X85885714Y-40683333D01*
X86076190Y-40588095D01*
X86361904Y-40588095D01*
X86552380Y-40492857D01*
X86647619Y-40302380D01*
X86647619Y-40207142D01*
X86552380Y-40016666D01*
X86361904Y-39921428D01*
X86076190Y-39921428D01*
X85885714Y-40016666D01*
X85219047Y-39921428D02*
X84457142Y-39921428D01*
X84933333Y-39254761D02*
X84933333Y-40969047D01*
X84838095Y-41159523D01*
X84647619Y-41254761D01*
X84457142Y-41254761D01*
X83028571Y-41159523D02*
X83219047Y-41254761D01*
X83600000Y-41254761D01*
X83790476Y-41159523D01*
X83885714Y-40969047D01*
X83885714Y-40207142D01*
X83790476Y-40016666D01*
X83600000Y-39921428D01*
X83219047Y-39921428D01*
X83028571Y-40016666D01*
X82933333Y-40207142D01*
X82933333Y-40397619D01*
X83885714Y-40588095D01*
X82076190Y-41254761D02*
X82076190Y-39921428D01*
X82076190Y-40302380D02*
X81980952Y-40111904D01*
X81885714Y-40016666D01*
X81695238Y-39921428D01*
X81504761Y-39921428D01*
X79409523Y-41159523D02*
X79123809Y-41254761D01*
X78647619Y-41254761D01*
X78457142Y-41159523D01*
X78361904Y-41064285D01*
X78266666Y-40873809D01*
X78266666Y-40683333D01*
X78361904Y-40492857D01*
X78457142Y-40397619D01*
X78647619Y-40302380D01*
X79028571Y-40207142D01*
X79219047Y-40111904D01*
X79314285Y-40016666D01*
X79409523Y-39826190D01*
X79409523Y-39635714D01*
X79314285Y-39445238D01*
X79219047Y-39350000D01*
X79028571Y-39254761D01*
X78552380Y-39254761D01*
X78266666Y-39350000D01*
X77409523Y-40207142D02*
X76742857Y-40207142D01*
X76457142Y-41254761D02*
X77409523Y-41254761D01*
X77409523Y-39254761D01*
X76457142Y-39254761D01*
X74457142Y-41064285D02*
X74552380Y-41159523D01*
X74838095Y-41254761D01*
X75028571Y-41254761D01*
X75314285Y-41159523D01*
X75504761Y-40969047D01*
X75600000Y-40778571D01*
X75695238Y-40397619D01*
X75695238Y-40111904D01*
X75600000Y-39730952D01*
X75504761Y-39540476D01*
X75314285Y-39350000D01*
X75028571Y-39254761D01*
X74838095Y-39254761D01*
X74552380Y-39350000D01*
X74457142Y-39445238D01*
X73600000Y-41254761D02*
X73600000Y-39254761D01*
X71695238Y-41254761D02*
X72647619Y-41254761D01*
X72647619Y-39254761D01*
X109980952Y-44554761D02*
X109980952Y-42554761D01*
X109123809Y-44554761D02*
X109123809Y-43507142D01*
X109219047Y-43316666D01*
X109409523Y-43221428D01*
X109695238Y-43221428D01*
X109885714Y-43316666D01*
X109980952Y-43411904D01*
X108457142Y-43221428D02*
X107695238Y-43221428D01*
X108171428Y-42554761D02*
X108171428Y-44269047D01*
X108076190Y-44459523D01*
X107885714Y-44554761D01*
X107695238Y-44554761D01*
X107314285Y-43221428D02*
X106552380Y-43221428D01*
X107028571Y-42554761D02*
X107028571Y-44269047D01*
X106933333Y-44459523D01*
X106742857Y-44554761D01*
X106552380Y-44554761D01*
X105885714Y-43221428D02*
X105885714Y-45221428D01*
X105885714Y-43316666D02*
X105695238Y-43221428D01*
X105314285Y-43221428D01*
X105123809Y-43316666D01*
X105028571Y-43411904D01*
X104933333Y-43602380D01*
X104933333Y-44173809D01*
X105028571Y-44364285D01*
X105123809Y-44459523D01*
X105314285Y-44554761D01*
X105695238Y-44554761D01*
X105885714Y-44459523D01*
X104171428Y-44459523D02*
X103980952Y-44554761D01*
X103600000Y-44554761D01*
X103409523Y-44459523D01*
X103314285Y-44269047D01*
X103314285Y-44173809D01*
X103409523Y-43983333D01*
X103600000Y-43888095D01*
X103885714Y-43888095D01*
X104076190Y-43792857D01*
X104171428Y-43602380D01*
X104171428Y-43507142D01*
X104076190Y-43316666D01*
X103885714Y-43221428D01*
X103600000Y-43221428D01*
X103409523Y-43316666D01*
X102457142Y-44364285D02*
X102361904Y-44459523D01*
X102457142Y-44554761D01*
X102552380Y-44459523D01*
X102457142Y-44364285D01*
X102457142Y-44554761D01*
X102457142Y-43316666D02*
X102361904Y-43411904D01*
X102457142Y-43507142D01*
X102552380Y-43411904D01*
X102457142Y-43316666D01*
X102457142Y-43507142D01*
X100076190Y-42459523D02*
X101790476Y-45030952D01*
X97980952Y-42459523D02*
X99695238Y-45030952D01*
X97409523Y-44459523D02*
X97219047Y-44554761D01*
X96838095Y-44554761D01*
X96647619Y-44459523D01*
X96552380Y-44269047D01*
X96552380Y-44173809D01*
X96647619Y-43983333D01*
X96838095Y-43888095D01*
X97123809Y-43888095D01*
X97314285Y-43792857D01*
X97409523Y-43602380D01*
X97409523Y-43507142D01*
X97314285Y-43316666D01*
X97123809Y-43221428D01*
X96838095Y-43221428D01*
X96647619Y-43316666D01*
X95695238Y-44554761D02*
X95695238Y-43221428D01*
X95695238Y-42554761D02*
X95790476Y-42650000D01*
X95695238Y-42745238D01*
X95600000Y-42650000D01*
X95695238Y-42554761D01*
X95695238Y-42745238D01*
X93885714Y-44554761D02*
X93885714Y-43507142D01*
X93980952Y-43316666D01*
X94171428Y-43221428D01*
X94552380Y-43221428D01*
X94742857Y-43316666D01*
X93885714Y-44459523D02*
X94076190Y-44554761D01*
X94552380Y-44554761D01*
X94742857Y-44459523D01*
X94838095Y-44269047D01*
X94838095Y-44078571D01*
X94742857Y-43888095D01*
X94552380Y-43792857D01*
X94076190Y-43792857D01*
X93885714Y-43697619D01*
X92933333Y-44554761D02*
X92933333Y-43221428D01*
X92933333Y-43411904D02*
X92838095Y-43316666D01*
X92647619Y-43221428D01*
X92361904Y-43221428D01*
X92171428Y-43316666D01*
X92076190Y-43507142D01*
X92076190Y-44554761D01*
X92076190Y-43507142D02*
X91980952Y-43316666D01*
X91790476Y-43221428D01*
X91504761Y-43221428D01*
X91314285Y-43316666D01*
X91219047Y-43507142D01*
X91219047Y-44554761D01*
X89504761Y-44459523D02*
X89695238Y-44554761D01*
X90076190Y-44554761D01*
X90266666Y-44459523D01*
X90361904Y-44269047D01*
X90361904Y-43507142D01*
X90266666Y-43316666D01*
X90076190Y-43221428D01*
X89695238Y-43221428D01*
X89504761Y-43316666D01*
X89409523Y-43507142D01*
X89409523Y-43697619D01*
X90361904Y-43888095D01*
X88552380Y-44364285D02*
X88457142Y-44459523D01*
X88552380Y-44554761D01*
X88647619Y-44459523D01*
X88552380Y-44364285D01*
X88552380Y-44554761D01*
X86742857Y-43221428D02*
X86742857Y-44554761D01*
X87600000Y-43221428D02*
X87600000Y-44269047D01*
X87504761Y-44459523D01*
X87314285Y-44554761D01*
X87028571Y-44554761D01*
X86838095Y-44459523D01*
X86742857Y-44364285D01*
X85790476Y-43221428D02*
X85790476Y-44554761D01*
X85790476Y-43411904D02*
X85695238Y-43316666D01*
X85504761Y-43221428D01*
X85219047Y-43221428D01*
X85028571Y-43316666D01*
X84933333Y-43507142D01*
X84933333Y-44554761D01*
X83980952Y-44554761D02*
X83980952Y-43221428D01*
X83980952Y-42554761D02*
X84076190Y-42650000D01*
X83980952Y-42745238D01*
X83885714Y-42650000D01*
X83980952Y-42554761D01*
X83980952Y-42745238D01*
X83219047Y-43221428D02*
X82742857Y-44554761D01*
X82266666Y-43221428D01*
X81504761Y-43792857D02*
X79980952Y-43792857D01*
X79314285Y-43221428D02*
X78552380Y-43221428D01*
X79028571Y-42554761D02*
X79028571Y-44269047D01*
X78933333Y-44459523D01*
X78742857Y-44554761D01*
X78552380Y-44554761D01*
X77600000Y-44554761D02*
X77790476Y-44459523D01*
X77885714Y-44269047D01*
X77885714Y-42554761D01*
X76933333Y-44459523D02*
X76742857Y-44554761D01*
X76361904Y-44554761D01*
X76171428Y-44459523D01*
X76076190Y-44269047D01*
X76076190Y-44173809D01*
X76171428Y-43983333D01*
X76361904Y-43888095D01*
X76647619Y-43888095D01*
X76838095Y-43792857D01*
X76933333Y-43602380D01*
X76933333Y-43507142D01*
X76838095Y-43316666D01*
X76647619Y-43221428D01*
X76361904Y-43221428D01*
X76171428Y-43316666D01*
X74457142Y-44459523D02*
X74647619Y-44554761D01*
X75028571Y-44554761D01*
X75219047Y-44459523D01*
X75314285Y-44269047D01*
X75314285Y-43507142D01*
X75219047Y-43316666D01*
X75028571Y-43221428D01*
X74647619Y-43221428D01*
X74457142Y-43316666D01*
X74361904Y-43507142D01*
X74361904Y-43697619D01*
X75314285Y-43888095D01*
X73695238Y-42554761D02*
X72457142Y-42554761D01*
X73123809Y-43316666D01*
X72838095Y-43316666D01*
X72647619Y-43411904D01*
X72552380Y-43507142D01*
X72457142Y-43697619D01*
X72457142Y-44173809D01*
X72552380Y-44364285D01*
X72647619Y-44459523D01*
X72838095Y-44554761D01*
X73409523Y-44554761D01*
X73600000Y-44459523D01*
X73695238Y-44364285D01*
X71600000Y-44364285D02*
X71504761Y-44459523D01*
X71600000Y-44554761D01*
X71695238Y-44459523D01*
X71600000Y-44364285D01*
X71600000Y-44554761D01*
X70933333Y-43221428D02*
X70171428Y-43221428D01*
X70647619Y-44554761D02*
X70647619Y-42840476D01*
X70552380Y-42650000D01*
X70361904Y-42554761D01*
X70171428Y-42554761D01*
X69504761Y-44554761D02*
X69504761Y-43221428D01*
X69504761Y-43602380D02*
X69409523Y-43411904D01*
X69314285Y-43316666D01*
X69123809Y-43221428D01*
X68933333Y-43221428D01*
%LPC*%
D12*
X33000000Y-33000000D03*
X33000000Y-127000000D03*
X122000000Y-127000000D03*
X121870000Y-32870000D03*
D13*
X114300000Y-48000000D03*
D14*
X114300000Y-50000000D03*
D13*
X72370000Y-120760000D03*
D14*
X70370000Y-120760000D03*
D15*
X37005000Y-42710000D03*
X37005000Y-48490000D03*
D16*
X33325000Y-49920000D03*
X33325000Y-41280000D03*
D17*
X37505000Y-49920000D03*
X37505000Y-41280000D03*
M02*
